<svg width="81" height="83" viewBox="0 0 81 83" fill="none" xmlns="http://www.w3.org/2000/svg">
<path d="M56.4688 38.5526L50.4175 28.1592L48.9869 25.7018H31.1561L29.7255 28.1592L23.6742 38.5526L22.2437 41.01L23.6742 43.4733L26.6969 48.6671L29.7196 53.8608L31.1501 56.3242H48.9809L50.4115 53.8668L53.4401 48.6671L56.4568 43.4733H56.4628L57.8934 41.01L56.4628 38.5526H56.4688ZM46.1199 51.4034H34.0231L27.9718 41.01L31.0005 35.8162L34.0231 30.6225H46.1199L49.1485 35.8162L52.1712 41.01L46.1199 51.4034Z" fill="black"/>
<path d="M52.1712 41.0099L46.1198 51.4034H34.0231L27.9717 41.0099L31.0004 35.8162L34.0231 30.6224H46.1198L49.1485 35.8162L52.1712 41.0099Z" fill="#CC9F25"/>
<path d="M46.1258 56.3242L52.1772 66.7176L46.1318 56.3242H46.1258ZM56.4688 64.2543L50.4175 53.8668L48.9869 51.4034H31.1561L29.7255 53.8608L23.6742 64.2543L22.2437 66.7176L23.6742 69.175L30.8089 81.4322C31.0005 81.7587 31.4673 82.0258 31.8504 82.0258H48.2926C48.6757 82.0258 49.1425 81.7587 49.3341 81.4322L56.4688 69.175L57.8994 66.7176L56.4688 64.2543ZM46.1199 77.1051H34.0231L27.9718 66.7176L34.0231 56.3242H46.1199L52.1712 66.7176L46.1199 77.1051ZM46.1258 56.3242L52.1772 66.7176L46.1318 56.3242H46.1258Z" fill="black"/>
<path d="M56.4688 12.851L49.3341 0.593694C49.1425 0.267229 48.6757 0.00012207 48.2926 0.00012207H31.8504C31.4673 0.00012207 31.0005 0.267229 30.8089 0.593694L23.6742 12.851L22.2437 15.3083L23.6742 17.7717L29.7255 28.1592L31.1561 30.6225H48.9869L50.4175 28.1592L56.4688 17.7717L57.8994 15.3083L56.4688 12.851ZM46.1199 25.7018H34.0231L27.9718 15.3083L34.0231 4.92083H46.1199L52.1712 15.3083L46.1199 25.7018Z" fill="black"/>
<path d="M79.9979 27.5656L71.7798 13.4445C71.5882 13.1181 71.1214 12.851 70.7383 12.851H53.6018L52.1712 15.3083L46.1199 25.7018L44.6893 28.1592L46.1199 30.6225L49.1425 35.8162L52.1652 41.01L53.5958 43.4733H71.4266L72.8572 41.01L79.9919 28.7527C80.1834 28.4263 80.1834 27.8921 79.9919 27.5656H79.9979ZM68.5655 38.5526H56.4688L50.4175 28.1592L56.4688 17.7717H68.5655L74.6169 28.1592L68.5655 38.5526Z" fill="black"/>
<path d="M56.4628 43.4733L53.4461 48.6671L56.4688 43.4733H56.4628ZM79.9979 53.2673L72.8631 41.01L71.4326 38.5526H53.6018L52.1712 41.01L46.1199 51.4034L44.6893 53.8608L46.1199 56.3242L52.1652 66.7176L53.5958 69.175H70.7323C71.1154 69.175 71.5822 68.9079 71.7738 68.5814L79.9919 54.4544C80.1834 54.1279 80.1834 53.5937 79.9919 53.2673H79.9979ZM68.5655 64.2543H56.4688L50.4175 53.8668L53.4461 48.6671L56.4688 43.4733H68.5655L74.6169 53.8608L68.5655 64.2543Z" fill="black"/>
<path d="M34.0232 25.7018L27.9718 15.3083L26.5413 12.851H9.40474C9.02166 12.851 8.55479 13.1181 8.36326 13.4445L0.139163 27.5656C-0.0463877 27.8921 -0.0463877 28.4263 0.139163 28.7527L7.27988 41.01L8.71042 43.4733H26.5413L27.9718 41.01L31.0005 35.8162L34.0172 30.6225H34.0232L35.4537 28.1592L34.0232 25.7018ZM23.6742 38.5526H11.5775L5.52612 28.1592L11.5775 17.7717H23.6742L29.7256 28.1592L23.6742 38.5526Z" fill="black"/>
<path d="M23.6802 43.4733L26.7089 48.6671L23.6862 43.4733H23.6802ZM23.6802 43.4733L26.7089 48.6671L23.6862 43.4733H23.6802ZM34.0232 51.4034L27.9718 41.01L26.5413 38.5526H8.71042L7.27988 41.01L0.139163 53.2673C-0.0463877 53.5937 -0.0463877 54.1279 0.139163 54.4544L8.36326 68.5814C8.55479 68.9079 9.02166 69.175 9.40474 69.175H26.5413L27.9718 66.7176L34.0172 56.3242H34.0232L35.4537 53.8608L34.0232 51.4034ZM23.6742 64.2543H11.5775L5.52612 53.8608L11.5775 43.4733H23.6742L26.7029 48.6671L29.7256 53.8608L23.6742 64.2543ZM23.6802 43.4733L26.7089 48.6671L23.6862 43.4733H23.6802Z" fill="black"/>
</svg>
