<svg width="282" height="232" viewBox="0 0 282 232" fill="none" xmlns="http://www.w3.org/2000/svg">
<g clip-path="url(#clip0_31_67)">
<path d="M281.549 118.026L276.919 126.761H5.08081L0.45096 118.026C-0.15032 116.916 -0.15032 115.055 0.45096 113.944L5.08081 105.209H276.919L281.549 113.944C282.15 115.055 282.15 116.916 281.549 118.026Z" fill="#F1CD79"/>
<path d="M260.474 74.1717H21.5258L32.9201 52.6196H249.05L260.474 74.1717Z" fill="#F1CD79"/>
<path d="M232.635 21.5521H49.3651L59.5567 2.3113C60.2482 1.02057 61.9619 0 63.435 0H218.595C220.038 0 221.782 1.05059 222.473 2.34131L232.665 21.5821L232.635 21.5521Z" fill="#F1CD79"/>
<path d="M232.635 210.448L222.443 229.689C221.752 230.979 220.038 232.03 218.565 232.03H63.435C61.9919 232.03 60.2482 230.979 59.5567 229.689L49.3651 210.448H232.605H232.635Z" fill="#F1CD79"/>
<path d="M32.9201 179.381H34.2429H247.757H249.08L260.474 157.829H259.151H22.8186H21.5258L32.9201 179.381Z" fill="#F1CD79"/>
</g>
<defs>
<clipPath id="clip0_31_67">
<rect width="282" height="232" fill="white"/>
</clipPath>
</defs>
</svg>
