<svg width="113" height="53" viewBox="0 0 113 53" fill="none" xmlns="http://www.w3.org/2000/svg">
<g clip-path="url(#clip0_3_384)">
<path d="M100.879 5.01947C95.3851 1.57046 85.8166 0.147779 85.0077 0.0125234C84.4759 -0.0701325 84.1962 0.273015 84.3827 0.77396C84.3827 0.77396 86.1694 5.43776 87.8402 8.40335C83.2563 8.43091 80.265 8.85671 79.441 8.95439C78.9067 9.02453 78.7354 9.4328 79.0579 9.8611C79.5594 10.4998 85.3126 18.2269 90.9574 21.4279C92.6156 26.6353 98.0387 30.2596 103.547 29.949L104.326 28.2959C102.154 28.5789 99.911 28.1982 97.9681 27.2239C99.4952 24.0103 101.098 19.9176 101.388 16.4811C103.338 15.2513 104.54 12.8192 104.387 10.6075C105.881 11.7922 107.327 11.905 108.406 11.7146C108.406 11.7146 109.56 10.615 109.293 8.42339C110.442 9.22491 111.443 10.2569 112.231 11.4767L113 9.83856C108.237 3.55421 101.015 4.99442 100.879 5.01697V5.01947ZM86.5096 1.86101C89.1052 2.34943 94.7979 3.58426 98.6914 5.57552C96.8039 6.23677 95.1079 7.33634 93.7269 8.80161C92.4241 8.59371 91.0355 8.48351 89.6571 8.43592C88.2484 5.90113 87.1245 3.34631 86.5096 1.86352V1.86101ZM90.4333 19.2538C86.8347 16.7767 83.0597 12.3533 81.4066 10.3069C82.9387 10.1491 86.1442 9.92873 88.7247 9.98133C89.4127 11.1661 90.1636 12.3308 90.9574 13.3727C90.3199 15.2388 90.1334 17.25 90.4333 19.2538ZM96.6048 26.4224C95.0802 25.3754 93.8504 23.9602 93.0264 22.3021C94.9844 22.8231 97.134 22.3872 98.7392 21.1825C98.1344 23.0034 97.3507 24.8369 96.6073 26.4224H96.6048ZM92.2754 20.3459C91.7689 18.5625 91.7386 16.6063 92.1696 14.833C94.0873 17.0622 96.8039 18.1367 99.6288 17.2926C98.7644 20.381 95.0978 21.8738 92.2754 20.3459ZM98.2277 15.9827C95.8815 16.2457 94.1679 14.8731 92.7466 13.1072C91.968 12.1629 91.2523 11.1085 90.5971 10.0465C92.6332 10.1742 94.8634 10.4322 96.7031 11.1886C98.4771 11.905 99.7195 13.6633 99.8254 15.5518C99.3264 15.7798 98.7896 15.9225 98.2277 15.9801V15.9827ZM101.67 14.1367C101.549 14.287 101.418 14.4297 101.279 14.56C100.692 11.667 98.4016 9.78596 95.5892 9.17982C96.9878 7.94499 98.6787 7.08587 100.531 6.6801C103.018 8.30317 103.59 11.8599 101.67 14.1367ZM107.481 10.2343C106.657 10.2068 104.623 9.78346 103.661 6.44215C104.921 6.52481 106.141 6.82287 107.28 7.30879C108.015 8.63629 107.708 9.72835 107.481 10.2343Z" fill="#291E06"/>
<path d="M10.3547 49.0225C8.95361 51.5423 5.17107 52.0357 3.20546 49.8766C2.40661 48.9974 2.00845 47.7626 2.00845 46.1771C2.00845 41.9116 4.88883 40.7794 6.42604 40.6692C6.57976 40.6592 9.02417 40.3111 10.3346 42.6505L11.2544 40.6918C9.26106 38.3899 6.09844 38.8884 5.62467 38.961C1.44901 39.5997 0 43.3217 0 46.1947C0 51.4771 3.5885 52.7195 5.49615 52.9399C5.75067 52.9699 9.21066 53.4684 11.2745 50.9812L10.3547 49.0225Z" fill="#291E06"/>
<path d="M53.956 47.0463C53.5402 46.4927 52.9732 46.092 52.2601 45.844C52.948 45.5735 53.4798 45.1652 53.8502 44.6217C54.2206 44.0807 54.4046 43.4595 54.4046 42.7607C54.4046 41.5584 53.946 40.6442 53.0287 40.008C52.1114 39.3768 50.7229 39.0587 48.8656 39.0587H44.8084V52.8197H49.7829C51.2647 52.8197 52.4339 52.484 53.2933 51.8103C54.1501 51.139 54.5785 50.1872 54.5785 48.9599C54.5785 48.236 54.3718 47.5973 53.956 47.0413V47.0463ZM46.7412 40.6717H48.8883C50.1231 40.6717 51.0227 40.8421 51.5872 41.1852C52.1542 41.5284 52.4365 42.0719 52.4365 42.8233C52.4365 43.5747 52.1542 44.1708 51.5973 44.539C51.0379 44.9072 50.1987 45.0901 49.0798 45.0901H46.7387V40.6717H46.7412ZM51.8291 50.6831C51.31 51.0388 50.6069 51.2166 49.7249 51.2166H46.7412V46.7181H49.609C51.6124 46.7181 52.6103 47.4671 52.6103 48.9649C52.6103 49.7564 52.3508 50.325 51.8291 50.6831Z" fill="#291E06"/>
<path d="M66.221 51.2342C65.7926 51.2342 65.4498 51.1515 65.1978 50.9912C64.9458 50.8284 64.656 50.5028 64.331 50.0119L62.8467 47.8403C62.4964 47.3368 62.1385 46.9862 61.7757 46.7933C62.5695 46.7407 63.2902 46.5679 63.9378 46.2698C64.588 45.9742 65.1021 45.5459 65.4801 44.9924C65.8581 44.4363 66.0446 43.7525 66.0446 42.9385C66.0446 41.7362 65.6162 40.7895 64.7568 40.1007C63.9 39.4069 62.6451 39.0637 60.9945 39.0637H56.9171V52.8247H58.8474V46.8359H59.1599C59.6664 46.8359 60.115 47.1264 60.503 47.7075L62.824 51.1565C63.2524 51.8027 63.7211 52.2661 64.2302 52.5416C64.7367 52.8197 65.3012 52.9574 65.9261 52.9574C65.9538 52.9574 65.9816 52.9574 66.0093 52.9574L66.8661 51.1365C66.662 51.2041 66.4452 51.2367 66.2184 51.2367L66.221 51.2342ZM58.8499 45.2829V40.6717H60.8584C61.9521 40.6717 62.7635 40.8721 63.2952 41.2704C63.8295 41.6711 64.0941 42.2397 64.0941 42.9761C64.0941 43.7776 63.8043 44.3612 63.2272 44.7294C62.6476 45.0976 61.8059 45.2804 60.7021 45.2804H58.8474L58.8499 45.2829Z" fill="#291E06"/>
<path d="M82.5229 39.0637V52.8247H84.4936V39.0637H82.5229Z" fill="#291E06"/>
<path d="M75.2905 39.0637H73.3677L67.7834 52.8247H69.7918L71.7297 47.6875H76.9159L78.8765 52.8247H80.8849L75.288 39.0637H75.2905ZM72.3597 46.0193L74.3102 40.8496L76.2809 46.0193H72.3597Z" fill="#291E06"/>
<path d="M93.5606 39.0637H91.6378L86.0535 52.8247H88.0619L89.9998 47.6875H95.186L97.1466 52.8247H99.155L93.5581 39.0637H93.5606ZM90.6298 46.0193L92.5803 40.8496L94.551 46.0193H90.6298Z" fill="#291E06"/>
<path d="M19.5755 39.0637H17.6527L12.0684 52.8247H14.0768L16.0147 47.6875H21.2009L23.1615 52.8247H25.1699L19.573 39.0637H19.5755ZM16.6447 46.0193L18.5952 40.8496L20.5659 46.0193H16.6447Z" fill="#291E06"/>
<path d="M41.3787 39.0687H39.9322C39.4105 39.0687 38.715 39.1864 38.337 40.1533L34.252 50.5779L30.1671 40.1533C29.8244 39.2816 29.1541 39.0687 28.5719 39.0687H27.1254L26.6567 52.8247H28.5493L28.8794 41.1602L33.4582 52.8247H35.0383L39.6172 41.1602L39.9473 52.8247H41.8398L41.3711 39.0687H41.3787Z" fill="#291E06"/>
<path d="M20.9716 28.9246V25.4555H27.2313V23.7698H20.9716V21.0898C20.9716 20.3885 21.5487 19.8124 22.2568 19.8124H27.4657V18.1267H21.1833C20.0064 18.1267 19.0412 19.0835 19.0412 20.2557V29.7586C19.0412 30.9284 20.0039 31.8877 21.1833 31.8877H27.5614L27.7177 30.202H22.2543C21.5487 30.202 20.9691 29.6284 20.9691 28.9246H20.9716Z" fill="#291E06"/>
<path d="M31.7749 28.9045V18.1267H29.8042V29.7586C29.8042 30.9284 30.7669 31.8877 31.9462 31.8877H37.954L38.1102 30.1819H33.0576C32.352 30.1819 31.7724 29.6084 31.7724 28.9045H31.7749Z" fill="#291E06"/>
<path d="M39.5164 18.1267V31.8877H41.487V18.1267H39.5164Z" fill="#291E06"/>
<path d="M51.6452 25.0448C51.1084 24.8118 50.3323 24.5438 49.4225 24.3484C48.4448 24.1355 47.7064 23.8826 47.21 23.582C45.7358 22.6853 45.9777 19.6195 48.9538 19.6195C50.5011 19.6195 51.4234 20.396 51.7233 21.9439L52.7742 19.7097C52.1038 18.7053 49.5435 17.0046 46.6152 18.4548C45.2645 19.1236 44.3523 20.391 44.3523 22.0015C44.3523 24.4862 45.7484 25.3303 48.664 26.0141C49.0395 26.1017 51.6276 26.4424 51.6276 28.2032C51.6276 29.6585 50.4507 30.3523 48.8203 30.3523C48.5733 30.3523 45.8492 30.6228 45.3502 27.5445L44.1885 30.0166C45.4031 32.0129 47.8727 32.0405 48.7018 32.0405C49.6645 32.0405 50.5112 31.8751 51.2496 31.547C52.8145 30.8482 53.5982 29.5683 53.5982 28.1256C53.5982 25.9991 52.371 25.3578 51.6477 25.0448H51.6452Z" fill="#291E06"/>
<path d="M62.8593 25.0448C62.3225 24.8118 61.5463 24.5438 60.6366 24.3484C59.6588 24.1355 58.9205 23.8826 58.424 23.582C56.9498 22.6853 57.1917 19.6195 60.1679 19.6195C61.7152 19.6195 62.6375 20.396 62.9374 21.9439L63.9882 19.7097C63.3179 18.7053 60.7576 17.0046 57.8293 18.4548C56.4786 19.1236 55.5663 20.391 55.5663 22.0015C55.5663 24.4862 56.9624 25.3303 59.8781 26.0141C60.2536 26.1017 62.8416 26.4424 62.8416 28.2032C62.8416 29.6585 61.6648 30.3523 60.0343 30.3523C59.7874 30.3523 57.0632 30.6228 56.5643 27.5445L55.4025 30.0166C56.6172 32.0129 59.0868 32.0405 59.9159 32.0405C60.8785 32.0405 61.7253 31.8751 62.4636 31.547C64.0286 30.8482 64.8123 29.5683 64.8123 28.1256C64.8123 25.9991 63.585 25.3578 62.8618 25.0448H62.8593Z" fill="#291E06"/>
<path d="M72.647 18.1267H70.7242L65.1399 31.8877H67.1483L69.0862 26.7505H74.2724L76.233 31.8877H78.2414L72.6445 18.1267H72.647ZM69.7162 25.0848L71.6667 19.9151L73.6374 25.0848H69.7162Z" fill="#291E06"/>
<path d="M15.6115 18.1317H14.165C13.6434 18.1317 12.9478 18.2494 12.5698 19.2163L8.4849 29.6409L4.39995 19.2163C4.05723 18.3446 3.38691 18.1317 2.80478 18.1317H1.35829L0.889572 31.8877H2.7821L3.11223 20.2232L7.69109 31.8877H9.27114L13.85 20.2232L14.1801 31.8877H16.0727L15.6039 18.1317H15.6115Z" fill="#291E06"/>
</g>
<defs>
<clipPath id="clip0_3_384">
<rect width="113" height="53" fill="white"/>
</clipPath>
</defs>
</svg>
