<svg width="538" height="61" viewBox="0 0 538 61" fill="none" xmlns="http://www.w3.org/2000/svg">
<g clip-path="url(#clip0_29_107)">
<path d="M456.716 43.7442V42.4835H457.701V37.8819H456.716V36.6211H460.205V37.8819H459.22V42.4835H460.205V43.7442H456.716Z" fill="#291E06"/>
<path d="M462.339 43.7442V36.6152H465.051C465.903 36.6152 466.599 36.7547 467.144 37.0336C467.683 37.3124 468.083 37.7133 468.344 38.2421C468.605 38.7708 468.732 39.4099 468.732 40.1594C468.732 40.9496 468.593 41.6061 468.315 42.1406C468.036 42.6693 467.625 43.0702 467.074 43.3433C466.524 43.6164 465.845 43.7442 465.028 43.7442H462.344H462.339ZM463.863 42.4486H464.86C466.373 42.4486 467.126 41.6932 467.126 40.1768C467.126 39.7004 467.045 39.2879 466.889 38.9509C466.732 38.6139 466.483 38.3524 466.153 38.1723C465.822 37.9922 465.405 37.9051 464.889 37.9051H463.863V42.4486Z" fill="#291E06"/>
<path d="M470.796 43.7442V36.6152H475.81V37.9051H472.32V39.375H475.282V40.6126H472.32V42.4486H475.879V43.7384H470.796V43.7442Z" fill="#291E06"/>
<path d="M477.96 43.7442V36.6152H480.145L483.328 42.9831L482.852 43.0121V36.6152H484.307V43.7442H482.174L478.911 37.3415L479.409 37.3066V43.7442H477.954H477.96Z" fill="#291E06"/>
<path d="M488.742 43.7442V37.9109H486.226V36.6211H492.788V37.9109H490.266V43.7442H488.742Z" fill="#291E06"/>
<path d="M494.515 43.7442V42.4835H495.5V37.8819H494.515V36.6211H498.004V37.8819H497.019V42.4835H498.004V43.7442H494.515Z" fill="#291E06"/>
<path d="M500.137 43.7442V36.6152H502.85C503.702 36.6152 504.398 36.7547 504.943 37.0336C505.488 37.3124 505.882 37.7133 506.143 38.2421C506.403 38.7708 506.531 39.4099 506.531 40.1594C506.531 40.9496 506.392 41.6061 506.114 42.1406C505.835 42.6693 505.424 43.0702 504.873 43.3433C504.322 43.6164 503.644 43.7442 502.827 43.7442H500.143H500.137ZM501.662 42.4486H502.659C504.172 42.4486 504.925 41.6932 504.925 40.1768C504.925 39.7004 504.844 39.2879 504.688 38.9509C504.531 38.6139 504.282 38.3524 503.952 38.1723C503.621 37.9922 503.204 37.9051 502.688 37.9051H501.662V42.4486Z" fill="#291E06"/>
<path d="M507.737 43.7442L510.461 36.6152H512.403L515.116 43.7442H513.475L511.423 37.725L509.377 43.7442H507.737ZM509.516 41.792V40.5719H513.319V41.792H509.516Z" fill="#291E06"/>
<path d="M516.866 43.7442V36.6152H519.579C520.431 36.6152 521.126 36.7547 521.671 37.0336C522.216 37.3124 522.61 37.7133 522.871 38.2421C523.132 38.7708 523.26 39.4099 523.26 40.1594C523.26 40.9496 523.12 41.6061 522.842 42.1406C522.564 42.6693 522.152 43.0702 521.602 43.3433C521.051 43.6106 520.373 43.7442 519.556 43.7442H516.872H516.866ZM518.396 42.4486H519.393C520.906 42.4486 521.66 41.6932 521.66 40.1768C521.66 39.7004 521.579 39.2879 521.422 38.9509C521.266 38.6139 521.016 38.3524 520.686 38.1723C520.356 37.9922 519.938 37.9051 519.422 37.9051H518.396V42.4486Z" fill="#291E06"/>
<path d="M525.323 43.7442V36.6152H530.337V37.9051H526.848V39.375H529.81V40.6126H526.848V42.4486H530.407V43.7384H525.323V43.7442Z" fill="#291E06"/>
<path d="M535.131 43.8719C534.603 43.8719 534.111 43.7906 533.664 43.6279C533.218 43.4652 532.847 43.2212 532.551 42.8842C532.256 42.553 532.07 42.1289 531.989 41.6176L533.577 41.298C533.606 41.7454 533.745 42.0824 534 42.2974C534.255 42.5124 534.621 42.6286 535.096 42.6286C535.409 42.6286 535.658 42.5879 535.844 42.5065C536.029 42.4252 536.163 42.3148 536.244 42.1754C536.325 42.0359 536.365 41.8849 536.365 41.7222C536.365 41.4607 536.267 41.2574 536.07 41.1179C535.873 40.9785 535.618 40.8739 535.305 40.8158L534.586 40.6764C534.337 40.6299 534.082 40.566 533.821 40.4846C533.56 40.4033 533.311 40.2871 533.085 40.136C532.859 39.985 532.679 39.7874 532.534 39.5492C532.395 39.3052 532.325 39.0031 532.325 38.637C532.325 38.1722 532.447 37.7771 532.685 37.4576C532.922 37.138 533.247 36.894 533.658 36.7313C534.07 36.5686 534.534 36.4873 535.055 36.4873C535.577 36.4873 536.018 36.5628 536.423 36.7197C536.829 36.8766 537.16 37.0974 537.42 37.3937C537.681 37.69 537.861 38.0502 537.942 38.4744L536.383 38.7939C536.354 38.5789 536.296 38.3872 536.203 38.2245C536.11 38.0618 535.983 37.9398 535.803 37.8527C535.629 37.7655 535.397 37.719 535.108 37.719C534.853 37.719 534.632 37.7539 534.458 37.8236C534.284 37.8933 534.151 37.9863 534.058 38.1083C533.966 38.2303 533.925 38.3698 533.925 38.5325C533.925 38.7649 534.035 38.945 534.261 39.0728C534.487 39.2006 534.795 39.2994 535.195 39.3749L535.931 39.526C536.273 39.5899 536.603 39.7003 536.916 39.8571C537.235 40.0082 537.49 40.229 537.693 40.5137C537.896 40.7984 537.994 41.1702 537.994 41.6292C537.994 42.1115 537.872 42.5182 537.629 42.8493C537.386 43.1805 537.049 43.4362 536.62 43.6047C536.192 43.779 535.693 43.8603 535.125 43.8603L535.131 43.8719Z" fill="#291E06"/>
<path d="M458.93 55.9048L456.449 48.7759H458.09L459.991 54.9404H459.846L461.747 48.7759H463.388L460.907 55.9048H458.936H458.93Z" fill="#291E06"/>
<path d="M464.941 55.9044V54.6436H465.927V50.042H464.941V48.7812H468.431V50.042H467.445V54.6436H468.431V55.9044H464.941Z" fill="#291E06"/>
<path d="M473.219 56.0321C472.691 56.0321 472.198 55.9507 471.752 55.788C471.306 55.6254 470.935 55.3813 470.639 55.0444C470.343 54.7132 470.158 54.289 470.077 53.7778L471.665 53.4582C471.694 53.9056 471.833 54.2426 472.088 54.4575C472.343 54.6725 472.708 54.7887 473.184 54.7887C473.497 54.7887 473.746 54.748 473.932 54.6667C474.117 54.5854 474.25 54.475 474.331 54.3355C474.413 54.1961 474.453 54.045 474.453 53.8823C474.453 53.6209 474.355 53.4175 474.158 53.2781C473.961 53.1386 473.705 53.0341 473.392 52.976L472.674 52.8365C472.424 52.79 472.169 52.7261 471.909 52.6448C471.648 52.5635 471.398 52.4473 471.172 52.2962C470.946 52.1451 470.767 51.9476 470.622 51.7094C470.483 51.4653 470.413 51.1632 470.413 50.7972C470.413 50.3324 470.535 49.9373 470.772 49.6177C471.01 49.2982 471.335 49.0542 471.746 48.8915C472.158 48.7288 472.622 48.6475 473.143 48.6475C473.665 48.6475 474.105 48.723 474.511 48.8799C474.917 49.0367 475.247 49.2575 475.508 49.5538C475.769 49.8501 475.949 50.2104 476.03 50.6345L474.471 50.9541C474.442 50.7391 474.384 50.5474 474.291 50.3847C474.198 50.222 474.071 50.1 473.891 50.0128C473.717 49.9257 473.485 49.8792 473.195 49.8792C472.94 49.8792 472.72 49.9141 472.546 49.9838C472.372 50.0535 472.239 50.1465 472.146 50.2685C472.053 50.3905 472.013 50.5299 472.013 50.6926C472.013 50.925 472.123 51.1051 472.349 51.2329C472.575 51.3608 472.882 51.4595 473.282 51.5351L474.018 51.6861C474.36 51.75 474.691 51.8604 475.004 52.0173C475.323 52.1684 475.578 52.3892 475.781 52.6738C475.983 52.9585 476.082 53.3304 476.082 53.7894C476.082 54.2716 475.96 54.6783 475.717 55.0095C475.473 55.3407 475.137 55.5963 474.708 55.7648C474.279 55.9391 473.781 56.0204 473.213 56.0204L473.219 56.0321Z" fill="#291E06"/>
<path d="M481.171 56.0326C480.528 56.0326 479.983 55.9222 479.525 55.7014C479.067 55.4807 478.719 55.1611 478.476 54.7486C478.233 54.3303 478.111 53.8306 478.111 53.2438V48.7758H479.635V53.1973C479.635 53.6912 479.769 54.0688 480.035 54.3361C480.302 54.6033 480.679 54.737 481.166 54.737C481.652 54.737 482.035 54.5975 482.302 54.3245C482.568 54.0514 482.702 53.6447 482.702 53.1101V48.77H484.226V53.238C484.226 53.8248 484.104 54.3245 483.861 54.7428C483.617 55.1611 483.27 55.4807 482.812 55.6956C482.354 55.9164 481.809 56.0268 481.166 56.0268L481.171 56.0326Z" fill="#291E06"/>
<path d="M485.646 55.9048L488.371 48.7759H490.312L493.025 55.9048H491.385L489.333 49.8856L487.287 55.9048H485.646ZM487.432 53.9527V52.7325H491.234V53.9527H487.432Z" fill="#291E06"/>
<path d="M494.521 55.9044V54.6436H495.506V50.042H494.521V48.7812H498.01V50.042H497.025V54.6436H498.01V55.9044H494.521Z" fill="#291E06"/>
<path d="M502.798 56.0321C502.27 56.0321 501.778 55.9507 501.331 55.788C500.885 55.6254 500.514 55.3813 500.218 55.0444C499.923 54.7132 499.737 54.289 499.656 53.7778L501.244 53.4582C501.273 53.9056 501.413 54.2426 501.668 54.4575C501.923 54.6725 502.288 54.7887 502.763 54.7887C503.076 54.7887 503.325 54.748 503.511 54.6667C503.696 54.5854 503.83 54.475 503.911 54.3355C503.992 54.1961 504.033 54.045 504.033 53.8823C504.033 53.6209 503.934 53.4175 503.737 53.2781C503.54 53.1386 503.285 53.0341 502.972 52.976L502.253 52.8365C502.004 52.79 501.749 52.7261 501.488 52.6448C501.227 52.5635 500.978 52.4473 500.752 52.2962C500.526 52.1451 500.346 51.9476 500.201 51.7094C500.062 51.4653 499.992 51.1632 499.992 50.7972C499.992 50.3324 500.114 49.9373 500.352 49.6177C500.589 49.2982 500.914 49.0542 501.326 48.8915C501.737 48.7288 502.201 48.6475 502.723 48.6475C503.244 48.6475 503.685 48.723 504.091 48.8799C504.496 49.0367 504.827 49.2575 505.088 49.5538C505.348 49.8501 505.528 50.2104 505.609 50.6345L504.05 50.9541C504.021 50.7391 503.963 50.5474 503.87 50.3847C503.778 50.222 503.65 50.1 503.47 50.0128C503.296 49.9257 503.065 49.8792 502.775 49.8792C502.52 49.8792 502.299 49.9141 502.126 49.9838C501.952 50.0535 501.818 50.1465 501.726 50.2685C501.633 50.3905 501.592 50.5299 501.592 50.6926C501.592 50.925 501.702 51.1051 501.928 51.2329C502.155 51.3608 502.462 51.4595 502.862 51.5351L503.598 51.6861C503.94 51.75 504.27 51.8604 504.583 52.0173C504.902 52.1684 505.157 52.3892 505.36 52.6738C505.563 52.9585 505.661 53.3304 505.661 53.7894C505.661 54.2716 505.54 54.6783 505.296 55.0095C505.053 55.3407 504.717 55.5963 504.288 55.7648C503.859 55.9391 503.36 56.0204 502.792 56.0204L502.798 56.0321Z" fill="#291E06"/>
<path d="M44.3666 10.214C33.278 3.19547 13.9699 0.296238 12.3411 0.0231644C11.2687 -0.145328 10.7007 0.551881 11.0833 1.57445C11.0833 1.57445 14.6887 11.0681 18.0622 17.1048C8.81104 17.1571 2.77111 18.0286 1.10752 18.2261C0.0293744 18.3714 -0.318414 19.2022 0.330791 20.0737C1.34517 21.3752 12.9555 37.1031 24.3456 43.6162C27.696 54.2196 38.6339 61.5925 49.7573 60.9593L51.3282 57.5952C46.9461 58.1704 42.419 57.3919 38.4948 55.4106C41.5785 48.8685 44.813 40.5426 45.3984 33.5415C49.3342 31.0374 51.7629 26.0872 51.4499 21.5844C54.4641 23.9955 57.3855 24.2279 59.5592 23.8387C59.5592 23.8387 61.8894 21.596 61.3503 17.1397C63.6689 18.7723 65.6861 20.8697 67.2801 23.3564L68.8335 20.0215C59.2172 7.23347 44.6391 10.1617 44.3724 10.2082L44.3666 10.214ZM15.3669 3.78809C20.6011 4.78743 32.0955 7.29738 39.9555 11.347C36.1472 12.6949 32.7215 14.9318 29.9392 17.9124C27.3134 17.4941 24.5079 17.2675 21.7256 17.1687C18.8795 12.0094 16.6131 6.80933 15.3726 3.78809H15.3669ZM23.2848 39.1889C16.0219 34.1457 8.40528 25.1401 5.06651 20.9801C8.16183 20.6606 14.6307 20.2132 19.8359 20.3178C21.2271 22.7289 22.74 25.0995 24.3456 27.2259C23.0588 31.0199 22.682 35.116 23.2906 39.1947L23.2848 39.1889ZM35.7473 53.778C32.6751 51.6457 30.1884 48.7639 28.5249 45.3941C32.4781 46.4515 36.8138 45.5684 40.054 43.1165C38.831 46.8233 37.2486 50.5534 35.7531 53.778H35.7473ZM27.0062 41.4083C25.986 37.777 25.9222 33.7971 26.7917 30.1891C30.658 34.7268 36.1472 36.9113 41.8452 35.1916C40.1004 41.4781 32.6983 44.5167 27.0004 41.4083H27.0062ZM39.0165 32.5305C34.2808 33.0651 30.8203 30.2704 27.9568 26.6798C26.386 24.7625 24.9426 22.6127 23.621 20.4514C27.7307 20.7129 32.2346 21.2358 35.9443 22.7754C39.5266 24.2338 42.0306 27.8128 42.2451 31.659C41.2423 32.1238 40.1526 32.4143 39.0223 32.5305H39.0165ZM45.9665 28.7714C45.7172 29.0794 45.4564 29.3641 45.1781 29.6313C43.9957 23.7399 39.3701 19.9169 33.6895 18.6793C36.5124 16.1636 39.9265 14.4147 43.6595 13.5955C48.6792 16.9014 49.8327 24.1408 45.9607 28.7714H45.9665ZM57.6927 20.8291C56.0291 20.7709 51.9252 19.9111 49.9834 13.1075C52.5281 13.276 54.9858 13.8802 57.287 14.8737C58.7709 17.5754 58.1564 19.8007 57.6927 20.8291Z" fill="#291E06"/>
<path d="M265.519 47.9392C262.696 53.0695 255.057 54.0688 251.092 49.6764C249.48 47.8869 248.675 45.3769 248.675 42.1465C248.675 33.4605 254.488 31.1597 257.59 30.9331C257.903 30.9098 262.835 30.2068 265.479 34.9653L267.333 30.9795C263.311 26.2966 256.923 27.3076 255.972 27.4586C247.544 28.7601 244.617 36.3364 244.617 42.1814C244.617 52.9358 251.857 55.4632 255.712 55.9106C256.227 55.9687 263.206 56.9855 267.374 51.9249L265.519 47.9392Z" fill="#291E06"/>
<path d="M353.515 43.9183C352.675 42.7911 351.533 41.9719 350.09 41.4722C351.481 40.9203 352.553 40.0952 353.301 38.9855C354.049 37.8816 354.42 36.6208 354.42 35.1973C354.42 32.7513 353.492 30.8863 351.643 29.5964C349.794 28.3066 346.989 27.6675 343.238 27.6675H335.048V55.6779H345.087C348.078 55.6779 350.438 54.9923 352.171 53.6269C353.898 52.2615 354.768 50.3268 354.768 47.8285C354.768 46.3585 354.35 45.057 353.51 43.9241L353.515 43.9183ZM338.955 30.9444H343.285C345.777 30.9444 347.591 31.293 348.733 31.9902C349.875 32.6874 350.449 33.7971 350.449 35.3252C350.449 36.8532 349.881 38.0675 348.757 38.817C347.626 39.5665 345.934 39.9384 343.679 39.9384H338.955V30.9444ZM349.226 51.3145C348.177 52.0349 346.757 52.401 344.977 52.401H338.955V43.2443H344.74C348.78 43.2443 350.797 44.7665 350.797 47.8168C350.797 49.4262 350.275 50.5824 349.22 51.3145H349.226Z" fill="#291E06"/>
<path d="M378.272 52.4416C377.409 52.4416 376.713 52.2731 376.203 51.9477C375.693 51.6166 375.107 50.9542 374.452 49.9549L371.456 45.5334C370.748 44.5108 370.024 43.7962 369.293 43.4069C370.893 43.3023 372.348 42.9479 373.658 42.3379C374.974 41.7336 376.006 40.8679 376.771 39.735C377.53 38.602 377.907 37.2076 377.907 35.5517C377.907 33.1057 377.043 31.1767 375.31 29.7707C373.583 28.3588 371.05 27.6616 367.717 27.6616H359.492V55.672H363.387V43.4825H364.019C365.039 43.4825 365.943 44.0751 366.731 45.2603L371.415 52.2789C372.279 53.592 373.229 54.5332 374.249 55.0968C375.27 55.6604 376.412 55.9451 377.675 55.9451C377.733 55.9451 377.785 55.9451 377.843 55.9451L379.571 52.2382C379.159 52.3777 378.724 52.4416 378.266 52.4416H378.272ZM363.393 40.3276V30.9385H367.444C369.653 30.9385 371.287 31.3452 372.366 32.1586C373.444 32.972 373.977 34.134 373.977 35.633C373.977 37.2657 373.392 38.4509 372.226 39.2004C371.056 39.9499 369.357 40.3218 367.131 40.3218H363.387L363.393 40.3276Z" fill="#291E06"/>
<path d="M411.173 27.6675V55.6779H415.149V27.6675H411.173Z" fill="#291E06"/>
<path d="M396.578 27.6675H392.694L381.426 55.6779H385.477L389.39 45.2255H399.858L403.817 55.6779H407.869L396.572 27.6675H396.578ZM390.659 41.8266L394.595 31.3046L398.577 41.8266H390.665H390.659Z" fill="#291E06"/>
<path d="M433.449 27.6675H429.565L418.297 55.6779H422.349L426.261 45.2255H436.73L440.689 55.6779H444.74L433.443 27.6675H433.449ZM427.537 41.8266L431.472 31.3046L435.454 41.8266H427.542H427.537Z" fill="#291E06"/>
<path d="M284.126 27.6675H280.242L268.974 55.6779H273.026L276.938 45.2255H287.407L291.366 55.6779H295.417L284.12 27.6675H284.126ZM278.213 41.8266L282.149 31.3046L286.131 41.8266H278.219H278.213Z" fill="#291E06"/>
<path d="M328.133 27.6675H325.217C324.168 27.6675 322.759 27.9057 321.994 29.8753L313.752 51.1053L305.509 29.8753C304.819 28.1032 303.463 27.6675 302.286 27.6675H299.371L298.426 55.6779H302.246L302.912 31.9263L312.158 55.6779H315.346L324.591 31.9263L325.258 55.6779H329.078L328.133 27.6675Z" fill="#291E06"/>
<path d="M117.245 49.6535V42.5942H129.876V39.1663H117.245V33.7106C117.245 32.2813 118.41 31.1135 119.836 31.1135H130.351V27.6855H117.669C115.292 27.6855 113.344 29.6377 113.344 32.0199V51.3616C113.344 53.7437 115.292 55.6959 117.669 55.6959H130.543L130.861 52.2622H119.836C118.41 52.2622 117.245 51.0944 117.245 49.6651V49.6535Z" fill="#291E06"/>
<path d="M139.052 49.6127V27.6738H135.075V51.3499C135.075 53.732 137.023 55.6842 139.399 55.6842H151.526L151.845 52.2098H141.649C140.223 52.2098 139.057 51.042 139.057 49.6127H139.052Z" fill="#291E06"/>
<path d="M154.673 27.6738V55.6842H158.65V27.6738H154.673Z" fill="#291E06"/>
<path d="M179.152 41.7575C178.068 41.2811 176.503 40.7408 174.665 40.3399C172.689 39.9099 171.199 39.3928 170.202 38.777C167.228 36.9526 167.715 30.7126 173.72 30.7126C176.845 30.7126 178.7 32.2929 179.308 35.4478L181.43 30.8985C180.079 28.8533 174.909 25.3964 168.996 28.3479C166.272 29.7074 164.429 32.2929 164.429 35.5698C164.429 40.6304 167.246 42.3443 173.129 43.7388C173.889 43.9189 179.111 44.6103 179.111 48.1951C179.111 51.1582 176.735 52.5701 173.442 52.5701C172.944 52.5701 167.443 53.122 166.44 46.853L164.098 51.8845C166.55 55.9457 171.535 56.0038 173.21 56.0038C175.152 56.0038 176.862 55.6669 178.352 54.9987C181.511 53.5752 183.093 50.9723 183.093 48.0324C183.093 43.7039 180.612 42.3966 179.158 41.7633L179.152 41.7575Z" fill="#291E06"/>
<path d="M201.787 41.7575C200.703 41.2811 199.138 40.7408 197.301 40.3399C195.324 39.9099 193.834 39.3928 192.837 38.777C189.864 36.9526 190.351 30.7126 196.356 30.7126C199.48 30.7126 201.335 32.2929 201.943 35.4478L204.065 30.8985C202.714 28.8533 197.544 25.3964 191.632 28.3479C188.907 29.7074 187.064 32.2929 187.064 35.5698C187.064 40.6304 189.881 42.3443 195.764 43.7388C196.524 43.9189 201.746 44.6103 201.746 48.1951C201.746 51.1582 199.37 52.5701 196.077 52.5701C195.579 52.5701 190.078 53.122 189.075 46.853L186.734 51.8845C189.185 55.9457 194.17 56.0038 195.846 56.0038C197.787 56.0038 199.497 55.6669 200.987 54.9987C204.146 53.5752 205.729 50.9723 205.729 48.0324C205.729 43.7039 203.248 42.3966 201.793 41.7633L201.787 41.7575Z" fill="#291E06"/>
<path d="M221.541 27.6738H217.658L206.389 55.6842H210.441L214.354 45.2319H224.822L228.781 55.6842H232.833L221.536 27.6738H221.541ZM215.629 41.8388L219.565 31.3167L223.547 41.8388H215.635H215.629Z" fill="#291E06"/>
<path d="M106.423 27.6738H103.508C102.459 27.6738 101.05 27.912 100.285 29.8817L92.0422 51.1117L83.7997 29.8817C83.1099 28.1096 81.7535 27.6738 80.5768 27.6738H77.6612L76.7164 55.6842H80.5362L81.2028 31.9326L90.4482 55.6842H93.6363L102.882 31.9326L103.548 55.6842H107.368L106.423 27.6738Z" fill="#291E06"/>
</g>
<defs>
<clipPath id="clip0_29_107">
<rect width="538" height="61" fill="white"/>
</clipPath>
</defs>
</svg>
