<svg width="1440" height="831" viewBox="0 0 1440 831" fill="none" xmlns="http://www.w3.org/2000/svg">
<mask id="mask0_3_225" style="mask-type:luminance" maskUnits="userSpaceOnUse" x="-135" y="5" width="1680" height="944">
<path d="M1545 5.77005H-135V948.558H1545V5.77005Z" fill="white"/>
</mask>
<g mask="url(#mask0_3_225)">
<mask id="mask1_3_225" style="mask-type:luminance" maskUnits="userSpaceOnUse" x="999" y="-251" width="569" height="357">
<path d="M1567.15 -250.44H999.399V105.561H1567.15V-250.44Z" fill="white"/>
</mask>
<g mask="url(#mask1_3_225)">
<path d="M1756.46 106.739L1752.07 114.768H1382.24L1377.84 106.739C1377.48 106.089 1377.48 105.033 1377.84 104.382L1382.24 96.3538H1752.07L1756.46 104.382C1756.82 105.033 1756.82 106.089 1756.46 106.739Z" fill="#291E06"/>
<path d="M1723.44 44.0831H1410.86L1420.95 25.6692H1713.35L1723.44 44.0831Z" fill="#291E06"/>
<path d="M1188.7 106.739L1184.3 114.768H814.473L810.074 106.739C809.718 106.089 809.718 105.033 810.074 104.382L814.473 96.3538H1184.3L1188.7 104.382C1189.05 105.033 1189.05 106.089 1188.7 106.739Z" fill="#291E06"/>
<path d="M1155.69 44.0831H843.111L853.198 25.6692H1145.6L1155.69 44.0831Z" fill="#291E06"/>
<path d="M1400.86 59.7225L1391.48 76.8597C1391.1 77.5594 1390.12 78.1364 1389.33 78.1364H1177.24C1176.44 78.1364 1175.47 77.5594 1175.09 76.8597L1165.7 59.7225H1400.87H1400.86Z" fill="#291E06"/>
<path d="M1439.56 -10.962L1429.49 7.45184H1137.07L1126.99 -10.962H1439.56Z" fill="#291E06"/>
</g>
<mask id="mask2_3_225" style="mask-type:luminance" maskUnits="userSpaceOnUse" x="999" y="105" width="569" height="357">
<path d="M1567.15 105.561H999.399V461.561H1567.15V105.561Z" fill="white"/>
</mask>
<g mask="url(#mask2_3_225)">
<path d="M1756.46 462.74L1752.07 470.768H1382.24L1377.84 462.74C1377.48 462.089 1377.48 461.033 1377.84 460.383L1382.24 452.354H1752.07L1756.46 460.383C1756.82 461.033 1756.82 462.089 1756.46 462.74Z" fill="#291E06"/>
<path d="M1723.44 400.084H1410.86L1420.95 381.67H1713.35L1723.44 400.084Z" fill="#291E06"/>
<path d="M1188.7 462.74L1184.3 470.768H814.473L810.074 462.74C809.718 462.089 809.718 461.033 810.074 460.383L814.473 452.354H1184.3L1188.7 460.383C1189.05 461.033 1189.05 462.089 1188.7 462.74Z" fill="#291E06"/>
<path d="M1155.69 400.084H843.111L853.198 381.67H1145.6L1155.69 400.084Z" fill="#291E06"/>
<path d="M1116.99 329.411H881.811L891.198 312.274C891.579 311.575 892.549 310.998 893.348 310.998H1105.44C1106.24 310.998 1107.21 311.575 1107.59 312.274L1116.97 329.411H1116.99Z" fill="#291E06"/>
<path d="M1756.46 106.739L1752.07 114.768H1382.24L1377.84 106.739C1377.48 106.089 1377.48 105.033 1377.84 104.382L1382.24 96.3538H1752.07L1756.46 104.382C1756.82 105.033 1756.82 106.089 1756.46 106.739Z" fill="#291E06"/>
<path d="M1723.44 167.038L1713.36 185.452H1420.95L1410.86 167.038H1723.44Z" fill="#291E06"/>
<path d="M1472.59 284.739L1468.19 292.768H1098.36L1093.96 284.739C1093.61 284.089 1093.61 283.033 1093.96 282.383L1098.36 274.354H1468.19L1472.59 282.383C1472.94 283.033 1472.94 284.089 1472.59 284.739Z" fill="#291E06"/>
<path d="M1439.56 222.083H1126.99L1137.07 203.67H1429.48L1439.56 222.083Z" fill="#291E06"/>
<path d="M1400.86 151.411H1165.69L1175.07 134.274C1175.45 133.574 1176.43 132.997 1177.22 132.997H1389.31C1390.11 132.997 1391.08 133.574 1391.46 134.274L1400.85 151.411H1400.86Z" fill="#291E06"/>
<path d="M1400.86 415.723L1391.48 432.86C1391.1 433.56 1390.12 434.137 1389.33 434.137H1177.24C1176.44 434.137 1175.47 433.56 1175.09 432.86L1165.7 415.723H1400.87H1400.86Z" fill="#291E06"/>
<path d="M1439.56 345.039L1429.49 363.452H1137.07L1126.99 345.039H1439.56Z" fill="#291E06"/>
<path d="M1188.7 106.739L1184.3 114.768H814.473L810.074 106.739C809.718 106.089 809.718 105.033 810.074 104.382L814.473 96.3538H1184.3L1188.7 104.382C1189.05 105.033 1189.05 106.089 1188.7 106.739Z" fill="#291E06"/>
<path d="M1116.99 237.723L1107.6 254.86C1107.22 255.56 1106.25 256.137 1105.45 256.137H893.36C892.561 256.137 891.591 255.56 891.21 254.86L881.824 237.723H1117H1116.99Z" fill="#291E06"/>
<path d="M1155.69 167.038L1145.61 185.452H853.198L843.111 167.038H1155.69Z" fill="#291E06"/>
</g>
<mask id="mask3_3_225" style="mask-type:luminance" maskUnits="userSpaceOnUse" x="999" y="461" width="569" height="357">
<path d="M1567.15 461.561H999.399V817.562H1567.15V461.561Z" fill="white"/>
</mask>
<g mask="url(#mask3_3_225)">
<path d="M1756.46 818.741L1752.07 826.769H1382.24L1377.84 818.741C1377.48 818.09 1377.48 817.034 1377.84 816.384L1382.24 808.355H1752.07L1756.46 816.384C1756.82 817.034 1756.82 818.09 1756.46 818.741Z" fill="#291E06"/>
<path d="M1723.44 756.084H1410.86L1420.95 737.671H1713.35L1723.44 756.084Z" fill="#291E06"/>
<path d="M1188.7 818.741L1184.3 826.769H814.473L810.074 818.741C809.718 818.09 809.718 817.034 810.074 816.384L814.473 808.355H1184.3L1188.7 816.384C1189.05 817.034 1189.05 818.09 1188.7 818.741Z" fill="#291E06"/>
<path d="M1155.69 756.084H843.111L853.198 737.671H1145.6L1155.69 756.084Z" fill="#291E06"/>
<path d="M1116.99 685.412H881.811L891.198 668.275C891.579 667.575 892.549 666.998 893.348 666.998H1105.44C1106.24 666.998 1107.21 667.575 1107.59 668.275L1116.97 685.412H1116.99Z" fill="#291E06"/>
<path d="M1756.46 462.74L1752.07 470.768H1382.24L1377.84 462.74C1377.48 462.089 1377.48 461.033 1377.84 460.383L1382.24 452.354H1752.07L1756.46 460.383C1756.82 461.033 1756.82 462.089 1756.46 462.74Z" fill="#291E06"/>
<path d="M1723.44 523.039L1713.36 541.453H1420.95L1410.86 523.039H1723.44Z" fill="#291E06"/>
<path d="M1472.59 640.74L1468.19 648.769H1098.36L1093.96 640.74C1093.61 640.09 1093.61 639.034 1093.96 638.383L1098.36 630.355H1468.19L1472.59 638.383C1472.94 639.034 1472.94 640.09 1472.59 640.74Z" fill="#291E06"/>
<path d="M1439.56 578.084H1126.99L1137.07 559.67H1429.48L1439.56 578.084Z" fill="#291E06"/>
<path d="M1400.86 507.412H1165.69L1175.07 490.275C1175.45 489.575 1176.43 488.998 1177.22 488.998H1389.31C1390.11 488.998 1391.08 489.575 1391.46 490.275L1400.85 507.412H1400.86Z" fill="#291E06"/>
<path d="M1400.86 771.724L1391.48 788.861C1391.1 789.561 1390.12 790.138 1389.33 790.138H1177.24C1176.44 790.138 1175.47 789.561 1175.09 788.861L1165.7 771.724H1400.87H1400.86Z" fill="#291E06"/>
<path d="M1439.56 701.039L1429.49 719.453H1137.07L1126.99 701.039H1439.56Z" fill="#291E06"/>
<path d="M1188.7 462.74L1184.3 470.768H814.473L810.074 462.74C809.718 462.089 809.718 461.033 810.074 460.383L814.473 452.354H1184.3L1188.7 460.383C1189.05 461.033 1189.05 462.089 1188.7 462.74Z" fill="#291E06"/>
<path d="M1116.99 593.724L1107.6 610.861C1107.22 611.56 1106.25 612.137 1105.45 612.137H893.36C892.561 612.137 891.591 611.56 891.21 610.861L881.824 593.724H1117H1116.99Z" fill="#291E06"/>
<path d="M1155.69 523.039L1145.61 541.453H853.198L843.111 523.039H1155.69Z" fill="#291E06"/>
</g>
<mask id="mask4_3_225" style="mask-type:luminance" maskUnits="userSpaceOnUse" x="999" y="817" width="569" height="357">
<path d="M1567.15 817.562H999.399V1173.56H1567.15V817.562Z" fill="white"/>
</mask>
<g mask="url(#mask4_3_225)">
<path d="M1756.46 818.74L1752.07 826.769H1382.24L1377.84 818.74C1377.48 818.09 1377.48 817.034 1377.84 816.383L1382.24 808.355H1752.07L1756.46 816.383C1756.82 817.034 1756.82 818.09 1756.46 818.74Z" fill="#291E06"/>
<path d="M1188.7 818.74L1184.3 826.769H814.473L810.074 818.74C809.718 818.09 809.718 817.034 810.074 816.383L814.473 808.355H1184.3L1188.7 816.383C1189.05 817.034 1189.05 818.09 1188.7 818.74Z" fill="#291E06"/>
</g>
<mask id="mask5_3_225" style="mask-type:luminance" maskUnits="userSpaceOnUse" x="431" y="-251" width="569" height="357">
<path d="M999.387 -250.44H431.634V105.561H999.387V-250.44Z" fill="white"/>
</mask>
<g mask="url(#mask5_3_225)">
<path d="M1188.7 106.739L1184.3 114.768H814.473L810.074 106.739C809.718 106.089 809.718 105.033 810.074 104.382L814.473 96.3538H1184.3L1188.7 104.382C1189.05 105.033 1189.05 106.089 1188.7 106.739Z" fill="#291E06"/>
<path d="M1155.69 44.0831H843.111L853.198 25.6692H1145.6L1155.69 44.0831Z" fill="#291E06"/>
<path d="M620.947 106.739L616.548 114.768H246.72L242.322 106.739C241.966 106.089 241.966 105.033 242.322 104.382L246.72 96.3538H616.548L620.947 104.382C621.303 105.033 621.303 106.089 620.947 106.739Z" fill="#291E06"/>
<path d="M587.935 44.0831H275.346L285.445 25.6692H577.848L587.935 44.0831Z" fill="#291E06"/>
<path d="M833.11 59.7225L823.724 76.8597C823.343 77.5594 822.372 78.1364 821.574 78.1364H609.484C608.685 78.1364 607.715 77.5594 607.334 76.8597L597.947 59.7225H833.123H833.11Z" fill="#291E06"/>
<path d="M871.811 -10.962L861.736 7.45184H569.321L559.235 -10.962H871.811Z" fill="#291E06"/>
</g>
<mask id="mask6_3_225" style="mask-type:luminance" maskUnits="userSpaceOnUse" x="431" y="105" width="569" height="357">
<path d="M999.387 105.561H431.634V461.561H999.387V105.561Z" fill="white"/>
</mask>
<g mask="url(#mask6_3_225)">
<path d="M1188.7 462.74L1184.3 470.768H814.473L810.074 462.74C809.718 462.089 809.718 461.033 810.074 460.383L814.473 452.354H1184.3L1188.7 460.383C1189.05 461.033 1189.05 462.089 1188.7 462.74Z" fill="#291E06"/>
<path d="M1155.69 400.084H843.111L853.198 381.67H1145.6L1155.69 400.084Z" fill="#291E06"/>
<path d="M1116.99 329.411H881.811L891.198 312.274C891.579 311.575 892.549 310.998 893.348 310.998H1105.44C1106.24 310.998 1107.21 311.575 1107.59 312.274L1116.97 329.411H1116.99Z" fill="#291E06"/>
<path d="M620.947 462.74L616.548 470.768H246.72L242.322 462.74C241.966 462.089 241.966 461.033 242.322 460.383L246.72 452.354H616.548L620.947 460.383C621.303 461.033 621.303 462.089 620.947 462.74Z" fill="#291E06"/>
<path d="M587.935 400.084H275.346L285.445 381.67H577.848L587.935 400.084Z" fill="#291E06"/>
<path d="M549.234 329.411H314.059L323.445 312.274C323.826 311.575 324.797 310.998 325.595 310.998H537.685C538.484 310.998 539.455 311.575 539.835 312.274L549.222 329.411H549.234Z" fill="#291E06"/>
<path d="M1188.7 106.739L1184.3 114.768H814.473L810.074 106.739C809.718 106.089 809.718 105.033 810.074 104.382L814.473 96.3538H1184.3L1188.7 104.382C1189.06 105.033 1189.06 106.089 1188.7 106.739Z" fill="#291E06"/>
<path d="M1116.99 237.723L1107.6 254.86C1107.22 255.56 1106.25 256.137 1105.45 256.137H893.36C892.561 256.137 891.591 255.56 891.21 254.86L881.824 237.723H1117H1116.99Z" fill="#291E06"/>
<path d="M1155.69 167.038L1145.61 185.452H853.198L843.111 167.038H1155.69Z" fill="#291E06"/>
<path d="M904.823 284.739L900.424 292.768H530.597L526.198 284.739C525.842 284.089 525.842 283.033 526.198 282.383L530.597 274.354H900.424L904.823 282.383C905.179 283.033 905.179 284.089 904.823 284.739Z" fill="#291E06"/>
<path d="M871.811 222.083H559.235L569.321 203.67H861.724L871.811 222.083Z" fill="#291E06"/>
<path d="M833.11 151.411H597.935L607.321 134.274C607.702 133.574 608.673 132.997 609.471 132.997H821.562C822.36 132.997 823.331 133.574 823.712 134.274L833.098 151.411H833.11Z" fill="#291E06"/>
<path d="M833.11 415.723L823.724 432.86C823.343 433.56 822.372 434.137 821.574 434.137H609.484C608.685 434.137 607.715 433.56 607.334 432.86L597.947 415.723H833.123H833.11Z" fill="#291E06"/>
<path d="M871.811 345.039L861.736 363.452H569.321L559.235 345.039H871.811Z" fill="#291E06"/>
<path d="M620.947 106.739L616.548 114.768H246.72L242.322 106.739C241.966 106.089 241.966 105.033 242.322 104.382L246.72 96.3538H616.548L620.947 104.382C621.303 105.033 621.303 106.089 620.947 106.739Z" fill="#291E06"/>
<path d="M549.234 237.723L539.848 254.86C539.467 255.56 538.496 256.137 537.698 256.137H325.608C324.809 256.137 323.839 255.56 323.458 254.86L314.071 237.723H549.246H549.234Z" fill="#291E06"/>
<path d="M587.935 167.038L577.848 185.452H285.445L275.346 167.038H587.935Z" fill="#291E06"/>
</g>
<mask id="mask7_3_225" style="mask-type:luminance" maskUnits="userSpaceOnUse" x="431" y="461" width="569" height="357">
<path d="M999.387 461.561H431.634V817.562H999.387V461.561Z" fill="white"/>
</mask>
<g mask="url(#mask7_3_225)">
<path d="M1188.7 818.741L1184.3 826.769H814.473L810.074 818.741C809.718 818.09 809.718 817.034 810.074 816.384L814.473 808.355H1184.3L1188.7 816.384C1189.05 817.034 1189.05 818.09 1188.7 818.741Z" fill="#291E06"/>
<path d="M1155.69 756.084H843.111L853.198 737.671H1145.6L1155.69 756.084Z" fill="#291E06"/>
<path d="M1116.99 685.412H881.811L891.198 668.275C891.579 667.575 892.549 666.998 893.348 666.998H1105.44C1106.24 666.998 1107.21 667.575 1107.59 668.275L1116.97 685.412H1116.99Z" fill="#291E06"/>
<path d="M620.947 818.741L616.548 826.769H246.72L242.322 818.741C241.966 818.09 241.966 817.034 242.322 816.384L246.72 808.355H616.548L620.947 816.384C621.303 817.034 621.303 818.09 620.947 818.741Z" fill="#291E06"/>
<path d="M587.935 756.084H275.346L285.445 737.671H577.848L587.935 756.084Z" fill="#291E06"/>
<path d="M549.234 685.412H314.059L323.445 668.275C323.826 667.575 324.797 666.998 325.595 666.998H537.685C538.484 666.998 539.455 667.575 539.835 668.275L549.222 685.412H549.234Z" fill="#291E06"/>
<path d="M1188.7 462.74L1184.3 470.768H814.473L810.074 462.74C809.718 462.089 809.718 461.033 810.074 460.383L814.473 452.354H1184.3L1188.7 460.383C1189.06 461.033 1189.06 462.089 1188.7 462.74Z" fill="#291E06"/>
<path d="M1116.99 593.724L1107.6 610.861C1107.22 611.56 1106.25 612.137 1105.45 612.137H893.36C892.561 612.137 891.591 611.56 891.21 610.861L881.824 593.724H1117H1116.99Z" fill="#291E06"/>
<path d="M1155.69 523.039L1145.61 541.453H853.198L843.111 523.039H1155.69Z" fill="#291E06"/>
<path d="M904.823 640.74L900.424 648.769H530.597L526.198 640.74C525.842 640.09 525.842 639.034 526.198 638.383L530.597 630.355H900.424L904.823 638.383C905.179 639.034 905.179 640.09 904.823 640.74Z" fill="#291E06"/>
<path d="M871.811 578.084H559.235L569.321 559.67H861.724L871.811 578.084Z" fill="#291E06"/>
<path d="M833.11 507.412H597.935L607.321 490.275C607.702 489.575 608.673 488.998 609.471 488.998H821.562C822.36 488.998 823.331 489.575 823.712 490.275L833.098 507.412H833.11Z" fill="#291E06"/>
<path d="M833.11 771.724L823.724 788.861C823.343 789.561 822.372 790.138 821.574 790.138H609.484C608.685 790.138 607.715 789.561 607.334 788.861L597.947 771.724H833.123H833.11Z" fill="#291E06"/>
<path d="M871.811 701.039L861.736 719.453H569.321L559.235 701.039H871.811Z" fill="#291E06"/>
<path d="M620.947 462.74L616.548 470.768H246.72L242.322 462.74C241.966 462.089 241.966 461.033 242.322 460.383L246.72 452.354H616.548L620.947 460.383C621.303 461.033 621.303 462.089 620.947 462.74Z" fill="#291E06"/>
<path d="M549.234 593.724L539.848 610.861C539.467 611.56 538.496 612.137 537.698 612.137H325.608C324.809 612.137 323.839 611.56 323.458 610.861L314.071 593.724H549.246H549.234Z" fill="#291E06"/>
<path d="M587.935 523.039L577.848 541.453H285.445L275.346 523.039H587.935Z" fill="#291E06"/>
</g>
<mask id="mask8_3_225" style="mask-type:luminance" maskUnits="userSpaceOnUse" x="431" y="817" width="569" height="357">
<path d="M999.387 817.562H431.634V1173.56H999.387V817.562Z" fill="white"/>
</mask>
<g mask="url(#mask8_3_225)">
<path d="M1188.7 818.74L1184.3 826.769H814.473L810.074 818.74C809.718 818.09 809.718 817.034 810.074 816.383L814.473 808.355H1184.3L1188.7 816.383C1189.06 817.034 1189.06 818.09 1188.7 818.74Z" fill="#291E06"/>
<path d="M620.947 818.74L616.548 826.769H246.72L242.322 818.74C241.966 818.09 241.966 817.034 242.322 816.383L246.72 808.355H616.548L620.947 816.383C621.303 817.034 621.303 818.09 620.947 818.74Z" fill="#291E06"/>
</g>
<mask id="mask9_3_225" style="mask-type:luminance" maskUnits="userSpaceOnUse" x="-137" y="-251" width="569" height="357">
<path d="M431.634 -250.44H-136.118V105.561H431.634V-250.44Z" fill="white"/>
</mask>
<g mask="url(#mask9_3_225)">
<path d="M620.947 106.739L616.548 114.768H246.72L242.322 106.739C241.966 106.089 241.966 105.033 242.322 104.382L246.72 96.3538H616.548L620.947 104.382C621.303 105.033 621.303 106.089 620.947 106.739Z" fill="#291E06"/>
<path d="M587.935 44.0831H275.346L285.445 25.6692H577.848L587.935 44.0831Z" fill="#291E06"/>
<path d="M53.1942 106.739L48.7959 114.768H-321.032L-325.43 106.739C-325.787 106.089 -325.787 105.033 -325.43 104.382L-321.032 96.3538H48.7959L53.1942 104.382C53.5505 105.033 53.5505 106.089 53.1942 106.739Z" fill="#291E06"/>
<path d="M20.1699 44.0831H-292.406L-282.319 25.6692H10.0832L20.1699 44.0831Z" fill="#291E06"/>
<path d="M265.346 59.7225L255.959 76.8597C255.578 77.5594 254.608 78.1364 253.809 78.1364H41.7192C40.9206 78.1364 39.95 77.5594 39.5692 76.8597L30.1828 59.7225H265.358H265.346Z" fill="#291E06"/>
<path d="M304.046 -10.962L293.972 7.45184H1.55686L-8.52979 -10.962H304.046Z" fill="#291E06"/>
</g>
<mask id="mask10_3_225" style="mask-type:luminance" maskUnits="userSpaceOnUse" x="-137" y="105" width="569" height="357">
<path d="M431.634 105.561H-136.118V461.561H431.634V105.561Z" fill="white"/>
</mask>
<g mask="url(#mask10_3_225)">
<path d="M620.947 462.74L616.548 470.768H246.72L242.322 462.74C241.966 462.089 241.966 461.033 242.322 460.383L246.72 452.354H616.548L620.947 460.383C621.303 461.033 621.303 462.089 620.947 462.74Z" fill="#291E06"/>
<path d="M587.935 400.084H275.346L285.445 381.67H577.848L587.935 400.084Z" fill="#291E06"/>
<path d="M549.234 329.411H314.059L323.445 312.274C323.826 311.575 324.797 310.998 325.595 310.998H537.685C538.484 310.998 539.455 311.575 539.835 312.274L549.222 329.411H549.234Z" fill="#291E06"/>
<path d="M53.1942 462.74L48.7959 470.768H-321.032L-325.43 462.74C-325.787 462.089 -325.787 461.033 -325.43 460.383L-321.032 452.354H48.7959L53.1942 460.383C53.5505 461.033 53.5505 462.089 53.1942 462.74Z" fill="#291E06"/>
<path d="M20.1699 400.084H-292.406L-282.319 381.67H10.0832L20.1699 400.084Z" fill="#291E06"/>
<path d="M620.947 106.739L616.548 114.768H246.72L242.322 106.739C241.966 106.089 241.966 105.033 242.322 104.382L246.72 96.3538H616.548L620.947 104.382C621.303 105.033 621.303 106.089 620.947 106.739Z" fill="#291E06"/>
<path d="M549.234 237.723L539.848 254.86C539.467 255.56 538.496 256.137 537.698 256.137H325.608C324.809 256.137 323.838 255.56 323.458 254.86L314.071 237.723H549.246H549.234Z" fill="#291E06"/>
<path d="M587.935 167.038L577.848 185.452H285.445L275.346 167.038H587.935Z" fill="#291E06"/>
<path d="M337.07 284.739L332.672 292.768H-37.1557L-41.5541 284.739C-41.9103 284.089 -41.9103 283.033 -41.5541 282.383L-37.1557 274.354H332.672L337.07 282.383C337.427 283.033 337.427 284.089 337.07 284.739Z" fill="#291E06"/>
<path d="M304.046 222.083H-8.52979L1.55686 203.67H293.959L304.046 222.083Z" fill="#291E06"/>
<path d="M265.346 151.411H30.1705L39.5569 134.274C39.9378 133.574 40.9084 132.997 41.7069 132.997H253.797C254.596 132.997 255.566 133.574 255.947 134.274L265.333 151.411H265.346Z" fill="#291E06"/>
<path d="M265.346 415.723L255.959 432.86C255.578 433.56 254.608 434.137 253.809 434.137H41.7192C40.9206 434.137 39.95 433.56 39.5692 432.86L30.1828 415.723H265.358H265.346Z" fill="#291E06"/>
<path d="M304.046 345.039L293.972 363.452H1.55686L-8.52979 345.039H304.046Z" fill="#291E06"/>
<path d="M53.1942 106.739L48.7959 114.768H-321.032L-325.43 106.739C-325.787 106.089 -325.787 105.033 -325.43 104.382L-321.032 96.3538H48.7959L53.1942 104.382C53.5505 105.033 53.5505 106.089 53.1942 106.739Z" fill="#291E06"/>
<path d="M20.1699 167.038L10.0955 185.452H-282.319L-292.406 167.038H20.1699Z" fill="#291E06"/>
</g>
<mask id="mask11_3_225" style="mask-type:luminance" maskUnits="userSpaceOnUse" x="-137" y="461" width="569" height="357">
<path d="M431.634 461.561H-136.118V817.562H431.634V461.561Z" fill="white"/>
</mask>
<g mask="url(#mask11_3_225)">
<path d="M620.947 818.741L616.548 826.769H246.72L242.322 818.741C241.966 818.09 241.966 817.034 242.322 816.384L246.72 808.355H616.548L620.947 816.384C621.303 817.034 621.303 818.09 620.947 818.741Z" fill="#291E06"/>
<path d="M587.935 756.084H275.346L285.445 737.671H577.848L587.935 756.084Z" fill="#291E06"/>
<path d="M549.234 685.412H314.059L323.445 668.275C323.826 667.575 324.797 666.998 325.595 666.998H537.685C538.484 666.998 539.455 667.575 539.835 668.275L549.222 685.412H549.234Z" fill="#291E06"/>
<path d="M53.1942 818.741L48.7959 826.769H-321.032L-325.43 818.741C-325.787 818.09 -325.787 817.034 -325.43 816.384L-321.032 808.355H48.7959L53.1942 816.384C53.5505 817.034 53.5505 818.09 53.1942 818.741Z" fill="#291E06"/>
<path d="M20.1699 756.084H-292.406L-282.319 737.671H10.0832L20.1699 756.084Z" fill="#291E06"/>
<path d="M620.947 462.74L616.548 470.768H246.72L242.322 462.74C241.966 462.089 241.966 461.033 242.322 460.383L246.72 452.354H616.548L620.947 460.383C621.303 461.033 621.303 462.089 620.947 462.74Z" fill="#291E06"/>
<path d="M549.234 593.724L539.848 610.861C539.467 611.56 538.496 612.137 537.698 612.137H325.608C324.809 612.137 323.838 611.56 323.458 610.861L314.071 593.724H549.246H549.234Z" fill="#291E06"/>
<path d="M587.935 523.039L577.848 541.453H285.445L275.346 523.039H587.935Z" fill="#291E06"/>
<path d="M337.07 640.74L332.672 648.769H-37.1557L-41.5541 640.74C-41.9103 640.09 -41.9103 639.034 -41.5541 638.383L-37.1557 630.355H332.672L337.07 638.383C337.427 639.034 337.427 640.09 337.07 640.74Z" fill="#291E06"/>
<path d="M304.046 578.084H-8.52979L1.55686 559.67H293.959L304.046 578.084Z" fill="#291E06"/>
<path d="M265.346 507.412H30.1705L39.5569 490.275C39.9378 489.575 40.9084 488.998 41.7069 488.998H253.797C254.596 488.998 255.566 489.575 255.947 490.275L265.333 507.412H265.346Z" fill="#291E06"/>
<path d="M265.346 771.724L255.959 788.861C255.578 789.561 254.608 790.138 253.809 790.138H41.7192C40.9206 790.138 39.95 789.561 39.5692 788.861L30.1828 771.724H265.358H265.346Z" fill="#291E06"/>
<path d="M304.046 701.039L293.972 719.453H1.55686L-8.52979 701.039H304.046Z" fill="#291E06"/>
<path d="M53.1942 462.74L48.7959 470.768H-321.032L-325.43 462.74C-325.787 462.089 -325.787 461.033 -325.43 460.383L-321.032 452.354H48.7959L53.1942 460.383C53.5505 461.033 53.5505 462.089 53.1942 462.74Z" fill="#291E06"/>
<path d="M20.1699 523.039L10.0955 541.453H-282.319L-292.406 523.039H20.1699Z" fill="#291E06"/>
</g>
<mask id="mask12_3_225" style="mask-type:luminance" maskUnits="userSpaceOnUse" x="-137" y="817" width="569" height="357">
<path d="M431.634 817.562H-136.118V1173.56H431.634V817.562Z" fill="white"/>
</mask>
<g mask="url(#mask12_3_225)">
<path d="M620.947 818.74L616.548 826.769H246.72L242.322 818.74C241.966 818.09 241.966 817.034 242.322 816.383L246.72 808.355H616.548L620.947 816.383C621.303 817.034 621.303 818.09 620.947 818.74Z" fill="#291E06"/>
<path d="M53.1942 818.74L48.7959 826.769H-321.032L-325.43 818.74C-325.787 818.09 -325.787 817.034 -325.43 816.383L-321.032 808.355H48.7959L53.1942 816.383C53.5505 817.034 53.5505 818.09 53.1942 818.74Z" fill="#291E06"/>
</g>
</g>
<path d="M1203.67 458.775C1204.49 460.203 1204.49 461.963 1203.67 463.392L1033.75 757.856C1032.92 759.286 1031.4 760.167 1029.75 760.167L410.253 760.167C408.602 760.167 407.077 759.286 406.252 757.856L236.332 463.392C235.508 461.963 235.508 460.203 236.332 458.775L406.252 164.31C407.077 162.881 408.602 162 410.253 162L1029.75 162C1031.4 162 1032.92 162.881 1033.75 164.31L1203.67 458.775Z" fill="white"/>
</svg>
