<svg width="1440" height="826" viewBox="0 0 1440 826" fill="none" xmlns="http://www.w3.org/2000/svg">
<mask id="mask0_3_410" style="mask-type:luminance" maskUnits="userSpaceOnUse" x="-135" y="0" width="1680" height="943">
<path d="M1545 0H-135V942.788H1545V0Z" fill="white"/>
</mask>
<g mask="url(#mask0_3_410)">
<mask id="mask1_3_410" style="mask-type:luminance" maskUnits="userSpaceOnUse" x="999" y="-257" width="569" height="357">
<path d="M1567.15 -256.21H999.399V99.7906H1567.15V-256.21Z" fill="white"/>
</mask>
<g mask="url(#mask1_3_410)">
<path d="M1756.46 100.969L1752.07 108.998H1382.24L1377.84 100.969C1377.48 100.318 1377.48 99.2628 1377.84 98.6122L1382.24 90.5837H1752.07L1756.46 98.6122C1756.82 99.2628 1756.82 100.318 1756.46 100.969Z" fill="#291E06"/>
<path d="M1723.44 38.313H1410.86L1420.95 19.8992H1713.35L1723.44 38.313Z" fill="#291E06"/>
<path d="M1188.7 100.969L1184.3 108.998H814.473L810.074 100.969C809.718 100.318 809.718 99.2628 810.074 98.6122L814.473 90.5837H1184.3L1188.7 98.6122C1189.05 99.2628 1189.05 100.318 1188.7 100.969Z" fill="#291E06"/>
<path d="M1155.69 38.313H843.111L853.198 19.8992H1145.6L1155.69 38.313Z" fill="#291E06"/>
<path d="M1400.86 53.9525L1391.48 71.0896C1391.1 71.7893 1390.12 72.3663 1389.33 72.3663H1177.24C1176.44 72.3663 1175.47 71.7893 1175.09 71.0896L1165.7 53.9525H1400.87H1400.86Z" fill="#291E06"/>
<path d="M1439.56 -16.732L1429.49 1.68179H1137.07L1126.99 -16.732H1439.56Z" fill="#291E06"/>
</g>
<mask id="mask2_3_410" style="mask-type:luminance" maskUnits="userSpaceOnUse" x="999" y="99" width="569" height="357">
<path d="M1567.15 99.7906H999.399V455.791H1567.15V99.7906Z" fill="white"/>
</mask>
<g mask="url(#mask2_3_410)">
<path d="M1756.46 456.97L1752.07 464.998H1382.24L1377.84 456.97C1377.48 456.319 1377.48 455.263 1377.84 454.613L1382.24 446.584H1752.07L1756.46 454.613C1756.82 455.263 1756.82 456.319 1756.46 456.97Z" fill="#291E06"/>
<path d="M1723.44 394.314H1410.86L1420.95 375.9H1713.35L1723.44 394.314Z" fill="#291E06"/>
<path d="M1188.7 456.97L1184.3 464.998H814.473L810.074 456.97C809.718 456.319 809.718 455.263 810.074 454.613L814.473 446.584H1184.3L1188.7 454.613C1189.05 455.263 1189.05 456.319 1188.7 456.97Z" fill="#291E06"/>
<path d="M1155.69 394.314H843.111L853.198 375.9H1145.6L1155.69 394.314Z" fill="#291E06"/>
<path d="M1116.99 323.641H881.811L891.198 306.504C891.579 305.805 892.549 305.228 893.348 305.228H1105.44C1106.24 305.228 1107.21 305.805 1107.59 306.504L1116.97 323.641H1116.99Z" fill="#291E06"/>
<path d="M1756.46 100.969L1752.07 108.998H1382.24L1377.84 100.969C1377.48 100.319 1377.48 99.2628 1377.84 98.6122L1382.24 90.5837H1752.07L1756.46 98.6122C1756.82 99.2628 1756.82 100.319 1756.46 100.969Z" fill="#291E06"/>
<path d="M1723.44 161.268L1713.36 179.682H1420.95L1410.86 161.268H1723.44Z" fill="#291E06"/>
<path d="M1472.59 278.969L1468.19 286.998H1098.36L1093.96 278.969C1093.61 278.319 1093.61 277.263 1093.96 276.612L1098.36 268.584H1468.19L1472.59 276.612C1472.94 277.263 1472.94 278.319 1472.59 278.969Z" fill="#291E06"/>
<path d="M1439.56 216.313H1126.99L1137.07 197.9H1429.48L1439.56 216.313Z" fill="#291E06"/>
<path d="M1400.86 145.641H1165.69L1175.07 128.504C1175.45 127.804 1176.43 127.227 1177.22 127.227H1389.31C1390.11 127.227 1391.08 127.804 1391.46 128.504L1400.85 145.641H1400.86Z" fill="#291E06"/>
<path d="M1400.86 409.953L1391.48 427.09C1391.1 427.79 1390.12 428.367 1389.33 428.367H1177.24C1176.44 428.367 1175.47 427.79 1175.09 427.09L1165.7 409.953H1400.87H1400.86Z" fill="#291E06"/>
<path d="M1439.56 339.269L1429.49 357.682H1137.07L1126.99 339.269H1439.56Z" fill="#291E06"/>
<path d="M1188.7 100.969L1184.3 108.998H814.473L810.074 100.969C809.718 100.319 809.718 99.2628 810.074 98.6122L814.473 90.5837H1184.3L1188.7 98.6122C1189.05 99.2628 1189.05 100.319 1188.7 100.969Z" fill="#291E06"/>
<path d="M1116.99 231.953L1107.6 249.09C1107.22 249.79 1106.25 250.367 1105.45 250.367H893.36C892.561 250.367 891.591 249.79 891.21 249.09L881.824 231.953H1117H1116.99Z" fill="#291E06"/>
<path d="M1155.69 161.268L1145.61 179.682H853.198L843.111 161.268H1155.69Z" fill="#291E06"/>
</g>
<mask id="mask3_3_410" style="mask-type:luminance" maskUnits="userSpaceOnUse" x="999" y="455" width="569" height="357">
<path d="M1567.15 455.791H999.399V811.792H1567.15V455.791Z" fill="white"/>
</mask>
<g mask="url(#mask3_3_410)">
<path d="M1756.46 812.97L1752.07 820.999H1382.24L1377.84 812.97C1377.48 812.32 1377.48 811.264 1377.84 810.613L1382.24 802.585H1752.07L1756.46 810.613C1756.82 811.264 1756.82 812.32 1756.46 812.97Z" fill="#291E06"/>
<path d="M1723.44 750.314H1410.86L1420.95 731.9H1713.35L1723.44 750.314Z" fill="#291E06"/>
<path d="M1188.7 812.97L1184.3 820.999H814.473L810.074 812.97C809.718 812.32 809.718 811.264 810.074 810.613L814.473 802.585H1184.3L1188.7 810.613C1189.05 811.264 1189.05 812.32 1188.7 812.97Z" fill="#291E06"/>
<path d="M1155.69 750.314H843.111L853.198 731.9H1145.6L1155.69 750.314Z" fill="#291E06"/>
<path d="M1116.99 679.642H881.811L891.198 662.505C891.579 661.805 892.549 661.228 893.348 661.228H1105.44C1106.24 661.228 1107.21 661.805 1107.59 662.505L1116.97 679.642H1116.99Z" fill="#291E06"/>
<path d="M1756.46 456.97L1752.07 464.998H1382.24L1377.84 456.97C1377.48 456.319 1377.48 455.263 1377.84 454.613L1382.24 446.584H1752.07L1756.46 454.613C1756.82 455.263 1756.82 456.319 1756.46 456.97Z" fill="#291E06"/>
<path d="M1723.44 517.269L1713.36 535.683H1420.95L1410.86 517.269H1723.44Z" fill="#291E06"/>
<path d="M1472.59 634.97L1468.19 642.999H1098.36L1093.96 634.97C1093.61 634.319 1093.61 633.264 1093.96 632.613L1098.36 624.585H1468.19L1472.59 632.613C1472.94 633.264 1472.94 634.319 1472.59 634.97Z" fill="#291E06"/>
<path d="M1439.56 572.314H1126.99L1137.07 553.9H1429.48L1439.56 572.314Z" fill="#291E06"/>
<path d="M1400.86 501.642H1165.69L1175.07 484.505C1175.45 483.805 1176.43 483.228 1177.22 483.228H1389.31C1390.11 483.228 1391.08 483.805 1391.46 484.505L1400.85 501.642H1400.86Z" fill="#291E06"/>
<path d="M1400.86 765.954L1391.48 783.091C1391.1 783.791 1390.12 784.368 1389.33 784.368H1177.24C1176.44 784.368 1175.47 783.791 1175.09 783.091L1165.7 765.954H1400.87H1400.86Z" fill="#291E06"/>
<path d="M1439.56 695.269L1429.49 713.683H1137.07L1126.99 695.269H1439.56Z" fill="#291E06"/>
<path d="M1188.7 456.97L1184.3 464.998H814.473L810.074 456.97C809.718 456.319 809.718 455.263 810.074 454.613L814.473 446.584H1184.3L1188.7 454.613C1189.05 455.263 1189.05 456.319 1188.7 456.97Z" fill="#291E06"/>
<path d="M1116.99 587.953L1107.6 605.091C1107.22 605.79 1106.25 606.367 1105.45 606.367H893.36C892.561 606.367 891.591 605.79 891.21 605.091L881.824 587.953H1117H1116.99Z" fill="#291E06"/>
<path d="M1155.69 517.269L1145.61 535.683H853.198L843.111 517.269H1155.69Z" fill="#291E06"/>
</g>
<mask id="mask4_3_410" style="mask-type:luminance" maskUnits="userSpaceOnUse" x="999" y="811" width="569" height="357">
<path d="M1567.15 811.792H999.399V1167.79H1567.15V811.792Z" fill="white"/>
</mask>
<g mask="url(#mask4_3_410)">
<path d="M1756.46 812.97L1752.07 820.999H1382.24L1377.84 812.97C1377.48 812.32 1377.48 811.264 1377.84 810.613L1382.24 802.585H1752.07L1756.46 810.613C1756.82 811.264 1756.82 812.32 1756.46 812.97Z" fill="#291E06"/>
<path d="M1188.7 812.97L1184.3 820.999H814.473L810.074 812.97C809.718 812.32 809.718 811.264 810.074 810.613L814.473 802.585H1184.3L1188.7 810.613C1189.05 811.264 1189.05 812.32 1188.7 812.97Z" fill="#291E06"/>
</g>
<mask id="mask5_3_410" style="mask-type:luminance" maskUnits="userSpaceOnUse" x="431" y="-257" width="569" height="357">
<path d="M999.387 -256.21H431.634V99.7906H999.387V-256.21Z" fill="white"/>
</mask>
<g mask="url(#mask5_3_410)">
<path d="M1188.7 100.969L1184.3 108.998H814.473L810.074 100.969C809.718 100.318 809.718 99.2628 810.074 98.6122L814.473 90.5837H1184.3L1188.7 98.6122C1189.05 99.2628 1189.05 100.318 1188.7 100.969Z" fill="#291E06"/>
<path d="M1155.69 38.313H843.111L853.198 19.8992H1145.6L1155.69 38.313Z" fill="#291E06"/>
<path d="M620.947 100.969L616.548 108.998H246.72L242.322 100.969C241.966 100.318 241.966 99.2628 242.322 98.6122L246.72 90.5837H616.548L620.947 98.6122C621.303 99.2628 621.303 100.318 620.947 100.969Z" fill="#291E06"/>
<path d="M587.935 38.313H275.346L285.445 19.8992H577.848L587.935 38.313Z" fill="#291E06"/>
<path d="M833.11 53.9525L823.724 71.0896C823.343 71.7893 822.372 72.3663 821.574 72.3663H609.484C608.685 72.3663 607.715 71.7893 607.334 71.0896L597.947 53.9525H833.123H833.11Z" fill="#291E06"/>
<path d="M871.811 -16.732L861.736 1.68179H569.321L559.235 -16.732H871.811Z" fill="#291E06"/>
</g>
<mask id="mask6_3_410" style="mask-type:luminance" maskUnits="userSpaceOnUse" x="431" y="99" width="569" height="357">
<path d="M999.387 99.7906H431.634V455.791H999.387V99.7906Z" fill="white"/>
</mask>
<g mask="url(#mask6_3_410)">
<path d="M1188.7 456.97L1184.3 464.998H814.473L810.074 456.97C809.718 456.319 809.718 455.263 810.074 454.613L814.473 446.584H1184.3L1188.7 454.613C1189.05 455.263 1189.05 456.319 1188.7 456.97Z" fill="#291E06"/>
<path d="M1155.69 394.314H843.111L853.198 375.9H1145.6L1155.69 394.314Z" fill="#291E06"/>
<path d="M1116.99 323.641H881.811L891.198 306.504C891.579 305.805 892.549 305.228 893.348 305.228H1105.44C1106.24 305.228 1107.21 305.805 1107.59 306.504L1116.97 323.641H1116.99Z" fill="#291E06"/>
<path d="M620.947 456.97L616.548 464.998H246.72L242.322 456.97C241.966 456.319 241.966 455.263 242.322 454.613L246.72 446.584H616.548L620.947 454.613C621.303 455.263 621.303 456.319 620.947 456.97Z" fill="#291E06"/>
<path d="M587.935 394.314H275.346L285.445 375.9H577.848L587.935 394.314Z" fill="#291E06"/>
<path d="M549.234 323.641H314.059L323.445 306.504C323.826 305.805 324.797 305.228 325.595 305.228H537.685C538.484 305.228 539.455 305.805 539.835 306.504L549.222 323.641H549.234Z" fill="#291E06"/>
<path d="M1188.7 100.969L1184.3 108.998H814.473L810.074 100.969C809.718 100.319 809.718 99.2628 810.074 98.6122L814.473 90.5837H1184.3L1188.7 98.6122C1189.06 99.2628 1189.06 100.319 1188.7 100.969Z" fill="#291E06"/>
<path d="M1116.99 231.953L1107.6 249.09C1107.22 249.79 1106.25 250.367 1105.45 250.367H893.36C892.561 250.367 891.591 249.79 891.21 249.09L881.824 231.953H1117H1116.99Z" fill="#291E06"/>
<path d="M1155.69 161.268L1145.61 179.682H853.198L843.111 161.268H1155.69Z" fill="#291E06"/>
<path d="M904.823 278.969L900.424 286.998H530.597L526.198 278.969C525.842 278.319 525.842 277.263 526.198 276.612L530.597 268.584H900.424L904.823 276.612C905.179 277.263 905.179 278.319 904.823 278.969Z" fill="#291E06"/>
<path d="M871.811 216.313H559.235L569.321 197.9H861.724L871.811 216.313Z" fill="#291E06"/>
<path d="M833.11 145.641H597.935L607.321 128.504C607.702 127.804 608.673 127.227 609.471 127.227H821.562C822.36 127.227 823.331 127.804 823.712 128.504L833.098 145.641H833.11Z" fill="#291E06"/>
<path d="M833.11 409.953L823.724 427.09C823.343 427.79 822.372 428.367 821.574 428.367H609.484C608.685 428.367 607.715 427.79 607.334 427.09L597.947 409.953H833.123H833.11Z" fill="#291E06"/>
<path d="M871.811 339.269L861.736 357.682H569.321L559.235 339.269H871.811Z" fill="#291E06"/>
<path d="M620.947 100.969L616.548 108.998H246.72L242.322 100.969C241.966 100.319 241.966 99.2628 242.322 98.6122L246.72 90.5837H616.548L620.947 98.6122C621.303 99.2628 621.303 100.319 620.947 100.969Z" fill="#291E06"/>
<path d="M549.234 231.953L539.848 249.09C539.467 249.79 538.496 250.367 537.698 250.367H325.608C324.809 250.367 323.839 249.79 323.458 249.09L314.071 231.953H549.246H549.234Z" fill="#291E06"/>
<path d="M587.935 161.268L577.848 179.682H285.445L275.346 161.268H587.935Z" fill="#291E06"/>
</g>
<mask id="mask7_3_410" style="mask-type:luminance" maskUnits="userSpaceOnUse" x="431" y="455" width="569" height="357">
<path d="M999.387 455.791H431.634V811.792H999.387V455.791Z" fill="white"/>
</mask>
<g mask="url(#mask7_3_410)">
<path d="M1188.7 812.97L1184.3 820.999H814.473L810.074 812.97C809.718 812.32 809.718 811.264 810.074 810.613L814.473 802.585H1184.3L1188.7 810.613C1189.05 811.264 1189.05 812.32 1188.7 812.97Z" fill="#291E06"/>
<path d="M1155.69 750.314H843.111L853.198 731.9H1145.6L1155.69 750.314Z" fill="#291E06"/>
<path d="M1116.99 679.642H881.811L891.198 662.505C891.579 661.805 892.549 661.228 893.348 661.228H1105.44C1106.24 661.228 1107.21 661.805 1107.59 662.505L1116.97 679.642H1116.99Z" fill="#291E06"/>
<path d="M620.947 812.97L616.548 820.999H246.72L242.322 812.97C241.966 812.32 241.966 811.264 242.322 810.613L246.72 802.585H616.548L620.947 810.613C621.303 811.264 621.303 812.32 620.947 812.97Z" fill="#291E06"/>
<path d="M587.935 750.314H275.346L285.445 731.9H577.848L587.935 750.314Z" fill="#291E06"/>
<path d="M549.234 679.642H314.059L323.445 662.505C323.826 661.805 324.797 661.228 325.595 661.228H537.685C538.484 661.228 539.455 661.805 539.835 662.505L549.222 679.642H549.234Z" fill="#291E06"/>
<path d="M1188.7 456.97L1184.3 464.998H814.473L810.074 456.97C809.718 456.319 809.718 455.263 810.074 454.613L814.473 446.584H1184.3L1188.7 454.613C1189.06 455.263 1189.06 456.319 1188.7 456.97Z" fill="#291E06"/>
<path d="M1116.99 587.953L1107.6 605.091C1107.22 605.79 1106.25 606.367 1105.45 606.367H893.36C892.561 606.367 891.591 605.79 891.21 605.091L881.824 587.953H1117H1116.99Z" fill="#291E06"/>
<path d="M1155.69 517.269L1145.61 535.683H853.198L843.111 517.269H1155.69Z" fill="#291E06"/>
<path d="M904.823 634.97L900.424 642.999H530.597L526.198 634.97C525.842 634.319 525.842 633.264 526.198 632.613L530.597 624.585H900.424L904.823 632.613C905.179 633.264 905.179 634.319 904.823 634.97Z" fill="#291E06"/>
<path d="M871.811 572.314H559.235L569.321 553.9H861.724L871.811 572.314Z" fill="#291E06"/>
<path d="M833.11 501.642H597.935L607.321 484.505C607.702 483.805 608.673 483.228 609.471 483.228H821.562C822.36 483.228 823.331 483.805 823.712 484.505L833.098 501.642H833.11Z" fill="#291E06"/>
<path d="M833.11 765.954L823.724 783.091C823.343 783.791 822.372 784.368 821.574 784.368H609.484C608.685 784.368 607.715 783.791 607.334 783.091L597.947 765.954H833.123H833.11Z" fill="#291E06"/>
<path d="M871.811 695.269L861.736 713.683H569.321L559.235 695.269H871.811Z" fill="#291E06"/>
<path d="M620.947 456.97L616.548 464.998H246.72L242.322 456.97C241.966 456.319 241.966 455.263 242.322 454.613L246.72 446.584H616.548L620.947 454.613C621.303 455.263 621.303 456.319 620.947 456.97Z" fill="#291E06"/>
<path d="M549.234 587.953L539.848 605.091C539.467 605.79 538.496 606.367 537.698 606.367H325.608C324.809 606.367 323.839 605.79 323.458 605.091L314.071 587.953H549.246H549.234Z" fill="#291E06"/>
<path d="M587.935 517.269L577.848 535.683H285.445L275.346 517.269H587.935Z" fill="#291E06"/>
</g>
<mask id="mask8_3_410" style="mask-type:luminance" maskUnits="userSpaceOnUse" x="431" y="811" width="569" height="357">
<path d="M999.387 811.792H431.634V1167.79H999.387V811.792Z" fill="white"/>
</mask>
<g mask="url(#mask8_3_410)">
<path d="M1188.7 812.97L1184.3 820.999H814.473L810.074 812.97C809.718 812.32 809.718 811.264 810.074 810.613L814.473 802.585H1184.3L1188.7 810.613C1189.06 811.264 1189.06 812.32 1188.7 812.97Z" fill="#291E06"/>
<path d="M620.947 812.97L616.548 820.999H246.72L242.322 812.97C241.966 812.32 241.966 811.264 242.322 810.613L246.72 802.585H616.548L620.947 810.613C621.303 811.264 621.303 812.32 620.947 812.97Z" fill="#291E06"/>
</g>
<mask id="mask9_3_410" style="mask-type:luminance" maskUnits="userSpaceOnUse" x="-137" y="-257" width="569" height="357">
<path d="M431.634 -256.21H-136.118V99.7906H431.634V-256.21Z" fill="white"/>
</mask>
<g mask="url(#mask9_3_410)">
<path d="M620.947 100.969L616.548 108.998H246.72L242.322 100.969C241.966 100.318 241.966 99.2628 242.322 98.6122L246.72 90.5837H616.548L620.947 98.6122C621.303 99.2628 621.303 100.318 620.947 100.969Z" fill="#291E06"/>
<path d="M587.935 38.313H275.346L285.445 19.8992H577.848L587.935 38.313Z" fill="#291E06"/>
<path d="M53.1942 100.969L48.7959 108.998H-321.032L-325.43 100.969C-325.787 100.318 -325.787 99.2628 -325.43 98.6122L-321.032 90.5837H48.7959L53.1942 98.6122C53.5505 99.2628 53.5505 100.318 53.1942 100.969Z" fill="#291E06"/>
<path d="M20.1699 38.313H-292.406L-282.319 19.8992H10.0832L20.1699 38.313Z" fill="#291E06"/>
<path d="M265.346 53.9525L255.959 71.0896C255.578 71.7893 254.608 72.3663 253.809 72.3663H41.7192C40.9206 72.3663 39.95 71.7893 39.5692 71.0896L30.1828 53.9525H265.358H265.346Z" fill="#291E06"/>
<path d="M304.046 -16.732L293.972 1.68179H1.55686L-8.52979 -16.732H304.046Z" fill="#291E06"/>
</g>
<mask id="mask10_3_410" style="mask-type:luminance" maskUnits="userSpaceOnUse" x="-137" y="99" width="569" height="357">
<path d="M431.634 99.7906H-136.118V455.791H431.634V99.7906Z" fill="white"/>
</mask>
<g mask="url(#mask10_3_410)">
<path d="M620.947 456.97L616.548 464.998H246.72L242.322 456.97C241.966 456.319 241.966 455.263 242.322 454.613L246.72 446.584H616.548L620.947 454.613C621.303 455.263 621.303 456.319 620.947 456.97Z" fill="#291E06"/>
<path d="M587.935 394.314H275.346L285.445 375.9H577.848L587.935 394.314Z" fill="#291E06"/>
<path d="M549.234 323.641H314.059L323.445 306.504C323.826 305.805 324.797 305.228 325.595 305.228H537.685C538.484 305.228 539.455 305.805 539.835 306.504L549.222 323.641H549.234Z" fill="#291E06"/>
<path d="M53.1942 456.97L48.7959 464.998H-321.032L-325.43 456.97C-325.787 456.319 -325.787 455.263 -325.43 454.613L-321.032 446.584H48.7959L53.1942 454.613C53.5505 455.263 53.5505 456.319 53.1942 456.97Z" fill="#291E06"/>
<path d="M20.1699 394.314H-292.406L-282.319 375.9H10.0832L20.1699 394.314Z" fill="#291E06"/>
<path d="M620.947 100.969L616.548 108.998H246.72L242.322 100.969C241.966 100.319 241.966 99.2628 242.322 98.6122L246.72 90.5837H616.548L620.947 98.6122C621.303 99.2628 621.303 100.319 620.947 100.969Z" fill="#291E06"/>
<path d="M549.234 231.953L539.848 249.09C539.467 249.79 538.496 250.367 537.698 250.367H325.608C324.809 250.367 323.838 249.79 323.458 249.09L314.071 231.953H549.246H549.234Z" fill="#291E06"/>
<path d="M587.935 161.268L577.848 179.682H285.445L275.346 161.268H587.935Z" fill="#291E06"/>
<path d="M337.07 278.969L332.672 286.998H-37.1557L-41.5541 278.969C-41.9103 278.319 -41.9103 277.263 -41.5541 276.612L-37.1557 268.584H332.672L337.07 276.612C337.427 277.263 337.427 278.319 337.07 278.969Z" fill="#291E06"/>
<path d="M304.046 216.313H-8.52979L1.55686 197.9H293.959L304.046 216.313Z" fill="#291E06"/>
<path d="M265.346 145.641H30.1705L39.5569 128.504C39.9378 127.804 40.9084 127.227 41.7069 127.227H253.797C254.596 127.227 255.566 127.804 255.947 128.504L265.333 145.641H265.346Z" fill="#291E06"/>
<path d="M265.346 409.953L255.959 427.09C255.578 427.79 254.608 428.367 253.809 428.367H41.7192C40.9206 428.367 39.95 427.79 39.5692 427.09L30.1828 409.953H265.358H265.346Z" fill="#291E06"/>
<path d="M304.046 339.269L293.972 357.682H1.55686L-8.52979 339.269H304.046Z" fill="#291E06"/>
<path d="M53.1942 100.969L48.7959 108.998H-321.032L-325.43 100.969C-325.787 100.319 -325.787 99.2628 -325.43 98.6122L-321.032 90.5837H48.7959L53.1942 98.6122C53.5505 99.2628 53.5505 100.319 53.1942 100.969Z" fill="#291E06"/>
<path d="M20.1699 161.268L10.0955 179.682H-282.319L-292.406 161.268H20.1699Z" fill="#291E06"/>
</g>
<mask id="mask11_3_410" style="mask-type:luminance" maskUnits="userSpaceOnUse" x="-137" y="455" width="569" height="357">
<path d="M431.634 455.791H-136.118V811.792H431.634V455.791Z" fill="white"/>
</mask>
<g mask="url(#mask11_3_410)">
<path d="M620.947 812.97L616.548 820.999H246.72L242.322 812.97C241.966 812.32 241.966 811.264 242.322 810.613L246.72 802.585H616.548L620.947 810.613C621.303 811.264 621.303 812.32 620.947 812.97Z" fill="#291E06"/>
<path d="M587.935 750.314H275.346L285.445 731.9H577.848L587.935 750.314Z" fill="#291E06"/>
<path d="M549.234 679.642H314.059L323.445 662.505C323.826 661.805 324.797 661.228 325.595 661.228H537.685C538.484 661.228 539.455 661.805 539.835 662.505L549.222 679.642H549.234Z" fill="#291E06"/>
<path d="M53.1942 812.97L48.7959 820.999H-321.032L-325.43 812.97C-325.787 812.32 -325.787 811.264 -325.43 810.613L-321.032 802.585H48.7959L53.1942 810.613C53.5505 811.264 53.5505 812.32 53.1942 812.97Z" fill="#291E06"/>
<path d="M20.1699 750.314H-292.406L-282.319 731.9H10.0832L20.1699 750.314Z" fill="#291E06"/>
<path d="M620.947 456.97L616.548 464.998H246.72L242.322 456.97C241.966 456.319 241.966 455.263 242.322 454.613L246.72 446.584H616.548L620.947 454.613C621.303 455.263 621.303 456.319 620.947 456.97Z" fill="#291E06"/>
<path d="M549.234 587.953L539.848 605.091C539.467 605.79 538.496 606.367 537.698 606.367H325.608C324.809 606.367 323.838 605.79 323.458 605.091L314.071 587.953H549.246H549.234Z" fill="#291E06"/>
<path d="M587.935 517.269L577.848 535.683H285.445L275.346 517.269H587.935Z" fill="#291E06"/>
<path d="M337.07 634.97L332.672 642.999H-37.1557L-41.5541 634.97C-41.9103 634.319 -41.9103 633.264 -41.5541 632.613L-37.1557 624.585H332.672L337.07 632.613C337.427 633.264 337.427 634.319 337.07 634.97Z" fill="#291E06"/>
<path d="M304.046 572.314H-8.52979L1.55686 553.9H293.959L304.046 572.314Z" fill="#291E06"/>
<path d="M265.346 501.642H30.1705L39.5569 484.505C39.9378 483.805 40.9084 483.228 41.7069 483.228H253.797C254.596 483.228 255.566 483.805 255.947 484.505L265.333 501.642H265.346Z" fill="#291E06"/>
<path d="M265.346 765.954L255.959 783.091C255.578 783.791 254.608 784.368 253.809 784.368H41.7192C40.9206 784.368 39.95 783.791 39.5692 783.091L30.1828 765.954H265.358H265.346Z" fill="#291E06"/>
<path d="M304.046 695.269L293.972 713.683H1.55686L-8.52979 695.269H304.046Z" fill="#291E06"/>
<path d="M53.1942 456.97L48.7959 464.998H-321.032L-325.43 456.97C-325.787 456.319 -325.787 455.263 -325.43 454.613L-321.032 446.584H48.7959L53.1942 454.613C53.5505 455.263 53.5505 456.319 53.1942 456.97Z" fill="#291E06"/>
<path d="M20.1699 517.269L10.0955 535.683H-282.319L-292.406 517.269H20.1699Z" fill="#291E06"/>
</g>
<mask id="mask12_3_410" style="mask-type:luminance" maskUnits="userSpaceOnUse" x="-137" y="811" width="569" height="357">
<path d="M431.634 811.792H-136.118V1167.79H431.634V811.792Z" fill="white"/>
</mask>
<g mask="url(#mask12_3_410)">
<path d="M620.947 812.97L616.548 820.999H246.72L242.322 812.97C241.966 812.32 241.966 811.264 242.322 810.613L246.72 802.585H616.548L620.947 810.613C621.303 811.264 621.303 812.32 620.947 812.97Z" fill="#291E06"/>
<path d="M53.1942 812.97L48.7959 820.999H-321.032L-325.43 812.97C-325.787 812.32 -325.787 811.264 -325.43 810.613L-321.032 802.585H48.7959L53.1942 810.613C53.5505 811.264 53.5505 812.32 53.1942 812.97Z" fill="#291E06"/>
</g>
</g>
</svg>
