<svg width="281" height="242" viewBox="0 0 281 242" fill="none" xmlns="http://www.w3.org/2000/svg">
<g clip-path="url(#clip0_31_59)">
<path d="M245.588 0H35.403C32.391 0 29.9165 2.47508 29.9165 5.50846V135.181C29.9165 138.205 32.3817 140.689 35.403 140.689H245.588C248.6 140.689 251.074 138.214 251.074 135.181V5.50846C251.074 2.48439 248.609 0 245.588 0ZM235.921 125.476H45.0879V15.232H235.921V125.476Z" fill="#F1CD79"/>
<path d="M280.509 234.5L250.045 155.391C249.295 153.465 246.996 151.864 244.93 151.864H36.061C33.9943 151.864 31.6959 153.465 30.9637 155.391L0.500459 234.5C-1.08434 238.632 1.21408 242 5.61629 242H275.384C279.767 242 282.075 238.622 280.5 234.5H280.509ZM19.7312 226.777L42.6968 167.078H238.294L261.278 226.777H19.7312Z" fill="#F1CD79"/>
</g>
<defs>
<clipPath id="clip0_31_59">
<rect width="281" height="242" fill="white"/>
</clipPath>
</defs>
</svg>
