<svg width="90" height="71" viewBox="0 0 90 71" fill="none" xmlns="http://www.w3.org/2000/svg">
<path d="M64.7337 27.2882L60.0791 19.2829L57.2134 14.3538L49.3819 0.890801C49.0947 0.40383 48.3947 0 47.8264 0H17.1227C16.5484 0 15.8484 0.40383 15.5672 0.890801L0.21538 27.2882C-0.0717934 27.7752 -0.0717934 28.5769 0.21538 29.0698L15.5672 55.4672C15.8484 55.9542 16.5484 56.358 17.1227 56.358H47.8264C48.3947 56.358 49.0947 55.9542 49.3819 55.4672L64.7337 29.0698C65.0149 28.5769 65.0149 27.7752 64.7337 27.2882ZM45.9956 51.4289H18.9475L5.4204 28.179L18.9475 4.92316H45.9956L51.4819 14.3538L54.3476 19.2829L59.5227 28.179L45.9956 51.4289Z" fill="#070501"/>
<path d="M51.482 14.3538H41.742C41.1736 14.3538 40.4737 14.7576 40.1865 15.2446L24.8347 41.642C24.5475 42.1349 24.5475 42.9366 24.8347 43.4236L29.4893 51.4289H18.9476L5.42053 28.179L18.9476 4.92316H45.9958L51.482 14.3538Z" fill="#F1CD79"/>
<path d="M89.353 41.642L74.0012 15.2446C73.714 14.7576 73.014 14.3538 72.4456 14.3538H41.742C41.1736 14.3538 40.4736 14.7576 40.1865 15.2446L24.8346 41.642C24.5475 42.1349 24.5475 42.9366 24.8346 43.4236L29.4893 51.4289L32.355 56.358L40.1865 69.821C40.4736 70.3139 41.1736 70.7118 41.742 70.7118H72.4456C73.014 70.7118 73.714 70.3139 74.0012 69.821L89.353 43.4236C89.6402 42.9366 89.6402 42.1349 89.353 41.642ZM70.6209 65.7886H43.5667L38.0865 56.358L35.2208 51.4289L30.0457 42.5328L43.5667 19.2829H70.6209L84.142 42.5328L70.6209 65.7886Z" fill="#070501"/>
<path d="M84.1419 42.5327L70.6208 65.7886H43.5667L38.0864 56.358H47.8264C48.3948 56.358 49.0948 55.9542 49.3819 55.4672L64.7337 29.0698C65.0149 28.5769 65.0149 27.7751 64.7337 27.2882L60.0791 19.2828H70.6208L84.1419 42.5327Z" fill="#F1CD79"/>
<path d="M59.5227 28.179L45.9956 51.4289H35.2206L30.0455 42.5327L43.5666 19.2828H54.3476L59.5227 28.179Z" fill="#6C9DBD"/>
</svg>
